<mxfile host="Electron" modified="2025-08-17T10:47:14.368Z" agent="Mozilla/5.0 (Windows NT 10.0; Win64; x64) AppleWebKit/537.36 (KHTML, like Gecko) draw.io/24.1.0 Chrome/120.0.6099.109 Electron/28.1.0 Safari/537.36" etag="wSyz1cQ0IUdclb9cuYau" version="24.1.0" type="device">
  <diagram name="Sheet 1" id="noxEhjXfcJPRch1m8VZ3">
    <mxGraphModel dx="1434" dy="836" grid="1" gridSize="1.9685" guides="1" tooltips="1" connect="1" arrows="1" fold="1" page="1" pageScale="1" pageWidth="827" pageHeight="1169" math="0" shadow="0">
      <root>
        <mxCell id="0" />
        <mxCell id="1" parent="0" />
        <mxCell id="JBeKq6UBt9uG4QoYx59_-4" value="" style="rounded=0;whiteSpace=wrap;html=1;fillColor=none;strokeWidth=1;" parent="1" vertex="1">
          <mxGeometry x="39.37" y="39.37" width="748.03" height="1090.63" as="geometry" />
        </mxCell>
        <mxCell id="JBeKq6UBt9uG4QoYx59_-16" value="" style="endArrow=none;html=1;rounded=0;curved=0;endSize=6;targetPerimeterSpacing=0;jumpSize=6;strokeColor=default;exitX=0.5;exitY=0.018;exitDx=0;exitDy=0;exitPerimeter=0;strokeWidth=1;" parent="1" source="JBeKq6UBt9uG4QoYx59_-4" edge="1">
          <mxGeometry width="50" height="50" relative="1" as="geometry">
            <mxPoint x="413.37" y="32.68" as="sourcePoint" />
            <mxPoint x="413.37" y="19.68" as="targetPoint" />
          </mxGeometry>
        </mxCell>
        <mxCell id="JBeKq6UBt9uG4QoYx59_-18" value="" style="endArrow=none;html=1;rounded=0;entryX=0.026;entryY=0.5;entryDx=0;entryDy=0;entryPerimeter=0;strokeWidth=1;" parent="1" target="JBeKq6UBt9uG4QoYx59_-4" edge="1">
          <mxGeometry width="50" height="50" relative="1" as="geometry">
            <mxPoint x="19.69" y="584.67" as="sourcePoint" />
            <mxPoint x="27.69" y="584.67" as="targetPoint" />
          </mxGeometry>
        </mxCell>
        <mxCell id="JBeKq6UBt9uG4QoYx59_-20" value="" style="endArrow=none;html=1;rounded=0;exitX=0.974;exitY=0.5;exitDx=0;exitDy=0;exitPerimeter=0;strokeWidth=1;" parent="1" source="JBeKq6UBt9uG4QoYx59_-4" edge="1">
          <mxGeometry width="50" height="50" relative="1" as="geometry">
            <mxPoint x="797" y="584.68" as="sourcePoint" />
            <mxPoint x="807" y="584.68" as="targetPoint" />
          </mxGeometry>
        </mxCell>
        <mxCell id="JBeKq6UBt9uG4QoYx59_-23" value="" style="endArrow=none;html=1;rounded=0;entryX=1;entryY=0.75;entryDx=0;entryDy=0;exitX=0;exitY=0.75;exitDx=0;exitDy=0;strokeWidth=1;" parent="1" edge="1">
          <mxGeometry width="50" height="50" relative="1" as="geometry">
            <mxPoint x="39.3" y="944.8825000000002" as="sourcePoint" />
            <mxPoint x="787.49" y="944.8825000000002" as="targetPoint" />
          </mxGeometry>
        </mxCell>
        <mxCell id="JBeKq6UBt9uG4QoYx59_-25" value="" style="endArrow=none;html=1;rounded=0;entryX=1;entryY=0.75;entryDx=0;entryDy=0;exitX=0;exitY=0.75;exitDx=0;exitDy=0;strokeWidth=1;" parent="1" edge="1">
          <mxGeometry width="50" height="50" relative="1" as="geometry">
            <mxPoint x="39.3" y="984.2510000000001" as="sourcePoint" />
            <mxPoint x="787.49" y="984.2510000000001" as="targetPoint" />
          </mxGeometry>
        </mxCell>
        <mxCell id="VQGSf6ayIFre-QUfzGoe-1" value="" style="endArrow=none;html=1;rounded=0;strokeWidth=1;" parent="1" edge="1">
          <mxGeometry width="50" height="50" relative="1" as="geometry">
            <mxPoint x="547.24" y="1130" as="sourcePoint" />
            <mxPoint x="547.24" y="944.9" as="targetPoint" />
          </mxGeometry>
        </mxCell>
        <mxCell id="VQGSf6ayIFre-QUfzGoe-2" value="" style="endArrow=none;html=1;rounded=0;strokeWidth=1;" parent="1" edge="1">
          <mxGeometry width="50" height="50" relative="1" as="geometry">
            <mxPoint x="307.08849999999995" y="1129.9985" as="sourcePoint" />
            <mxPoint x="307.08849999999995" y="944.9" as="targetPoint" />
          </mxGeometry>
        </mxCell>
        <mxCell id="VQGSf6ayIFre-QUfzGoe-3" value="" style="endArrow=none;html=1;rounded=0;entryX=1;entryY=0.75;entryDx=0;entryDy=0;exitX=0;exitY=0.75;exitDx=0;exitDy=0;strokeWidth=1;" parent="1" edge="1">
          <mxGeometry width="50" height="50" relative="1" as="geometry">
            <mxPoint x="307.1" y="1023.6195" as="sourcePoint" />
            <mxPoint x="787.5" y="1023.6195" as="targetPoint" />
          </mxGeometry>
        </mxCell>
        <mxCell id="VQGSf6ayIFre-QUfzGoe-4" value="" style="endArrow=none;html=1;rounded=0;entryX=1;entryY=0.75;entryDx=0;entryDy=0;exitX=0;exitY=0.75;exitDx=0;exitDy=0;strokeWidth=1;" parent="1" edge="1">
          <mxGeometry width="50" height="50" relative="1" as="geometry">
            <mxPoint x="547.2" y="1090.548" as="sourcePoint" />
            <mxPoint x="787.5" y="1090.548" as="targetPoint" />
          </mxGeometry>
        </mxCell>
        <mxCell id="VQGSf6ayIFre-QUfzGoe-5" value="" style="endArrow=none;html=1;rounded=0;strokeWidth=1;" parent="1" edge="1">
          <mxGeometry width="50" height="50" relative="1" as="geometry">
            <mxPoint x="586.6084999999999" y="1129.9985" as="sourcePoint" />
            <mxPoint x="586.6084999999999" y="1090.5" as="targetPoint" />
          </mxGeometry>
        </mxCell>
        <mxCell id="VQGSf6ayIFre-QUfzGoe-6" value="" style="endArrow=none;html=1;rounded=0;strokeWidth=1;" parent="1" edge="1">
          <mxGeometry width="50" height="50" relative="1" as="geometry">
            <mxPoint x="728.347" y="1129.9969999999998" as="sourcePoint" />
            <mxPoint x="728.347" y="1090.4985" as="targetPoint" />
          </mxGeometry>
        </mxCell>
        <mxCell id="VQGSf6ayIFre-QUfzGoe-7" value="" style="endArrow=none;html=1;rounded=0;strokeWidth=1;" parent="1" edge="1">
          <mxGeometry width="50" height="50" relative="1" as="geometry">
            <mxPoint x="173.22699999999986" y="984.3" as="sourcePoint" />
            <mxPoint x="173.22699999999986" y="944.8784999999999" as="targetPoint" />
          </mxGeometry>
        </mxCell>
        <mxCell id="VQGSf6ayIFre-QUfzGoe-9" value="&lt;font style=&quot;font-size: 10px;&quot;&gt;Complexity (Scale 0-5)&lt;/font&gt;" style="text;html=1;align=left;verticalAlign=middle;whiteSpace=wrap;rounded=0;fillColor=none;fontStyle=0;fontFamily=Verdana;fontSize=10;" parent="1" vertex="1">
          <mxGeometry x="41.34" y="944.88" width="125.98" height="12.29" as="geometry" />
        </mxCell>
        <mxCell id="VQGSf6ayIFre-QUfzGoe-10" value="&lt;font style=&quot;font-size: 10px;&quot;&gt;Number of connections&lt;/font&gt;" style="text;html=1;align=left;verticalAlign=middle;whiteSpace=wrap;rounded=0;fontStyle=0;fontFamily=Verdana;fontSize=10;" parent="1" vertex="1">
          <mxGeometry x="175.2" y="944.88" width="125.98" height="12.29" as="geometry" />
        </mxCell>
        <mxCell id="VQGSf6ayIFre-QUfzGoe-11" value="&lt;font style=&quot;font-size: 10px;&quot;&gt;&lt;span style=&quot;font-size: 10px;&quot;&gt;Type of circuit (Power Supply: 5V)&lt;/span&gt;&lt;/font&gt;" style="text;html=1;align=left;verticalAlign=middle;whiteSpace=wrap;rounded=0;fontStyle=0;fontFamily=Verdana;fontSize=10;" parent="1" vertex="1">
          <mxGeometry x="309.06" y="944.88" width="202.75" height="12.29" as="geometry" />
        </mxCell>
        <mxCell id="VQGSf6ayIFre-QUfzGoe-12" value="Power consumption" style="text;html=1;align=left;verticalAlign=middle;whiteSpace=wrap;rounded=0;fontStyle=0;fontFamily=Verdana;fontSize=10;" parent="1" vertex="1">
          <mxGeometry x="549.22" y="944.88" width="212.59" height="12.29" as="geometry" />
        </mxCell>
        <mxCell id="VQGSf6ayIFre-QUfzGoe-13" value="&lt;font style=&quot;font-size: 10px;&quot;&gt;Created by&lt;/font&gt;" style="text;html=1;align=left;verticalAlign=middle;whiteSpace=wrap;rounded=0;fontStyle=0;fontFamily=Verdana;fontSize=10;" parent="1" vertex="1">
          <mxGeometry x="549.22" y="984.25" width="57.08" height="12.29" as="geometry" />
        </mxCell>
        <mxCell id="VQGSf6ayIFre-QUfzGoe-14" value="&lt;font style=&quot;font-size: 10px;&quot;&gt;Project title&lt;/font&gt;" style="text;html=1;align=left;verticalAlign=middle;whiteSpace=wrap;rounded=0;fontStyle=0;fontFamily=Verdana;fontSize=10;" parent="1" vertex="1">
          <mxGeometry x="309.06" y="984.25" width="70.86" height="12.29" as="geometry" />
        </mxCell>
        <mxCell id="VQGSf6ayIFre-QUfzGoe-15" value="&lt;font style=&quot;font-size: 10px;&quot;&gt;Drawing title&lt;/font&gt;" style="text;html=1;align=left;verticalAlign=middle;whiteSpace=wrap;rounded=0;fontStyle=0;fontFamily=Verdana;fontSize=10;" parent="1" vertex="1">
          <mxGeometry x="309.06" y="1023.62" width="74.8" height="12.29" as="geometry" />
        </mxCell>
        <mxCell id="VQGSf6ayIFre-QUfzGoe-16" value="&lt;font style=&quot;font-size: 10px;&quot;&gt;Drawing number&lt;/font&gt;" style="text;html=1;align=left;verticalAlign=middle;whiteSpace=wrap;rounded=0;fontStyle=0;fontFamily=Verdana;fontSize=10;" parent="1" vertex="1">
          <mxGeometry x="549.22" y="1023.62" width="94.48" height="12.29" as="geometry" />
        </mxCell>
        <mxCell id="VQGSf6ayIFre-QUfzGoe-17" value="&lt;font style=&quot;font-size: 10px;&quot;&gt;Notes&lt;/font&gt;" style="text;html=1;align=left;verticalAlign=middle;whiteSpace=wrap;rounded=0;fontStyle=0;fontFamily=Verdana;fontSize=10;" parent="1" vertex="1">
          <mxGeometry x="41.338499999999996" y="984.2484999999999" width="25.59" height="12.29" as="geometry" />
        </mxCell>
        <mxCell id="VQGSf6ayIFre-QUfzGoe-18" value="&lt;font style=&quot;font-size: 10px;&quot;&gt;Rev.&lt;/font&gt;" style="text;html=1;align=left;verticalAlign=middle;whiteSpace=wrap;rounded=0;fontStyle=0;fontFamily=Verdana;fontSize=10;" parent="1" vertex="1">
          <mxGeometry x="549.22" y="1090.55" width="41.33" height="12.29" as="geometry" />
        </mxCell>
        <mxCell id="VQGSf6ayIFre-QUfzGoe-19" value="&lt;font style=&quot;font-size: 10px;&quot;&gt;Date of issue&lt;/font&gt;" style="text;html=1;align=left;verticalAlign=middle;whiteSpace=wrap;rounded=0;fontStyle=0;fontFamily=Verdana;fontSize=10;" parent="1" vertex="1">
          <mxGeometry x="588" y="1090.55" width="71.45" height="12.29" as="geometry" />
        </mxCell>
        <mxCell id="VQGSf6ayIFre-QUfzGoe-20" value="&lt;font style=&quot;font-size: 10px;&quot;&gt;Sheet&lt;/font&gt;" style="text;html=1;align=left;verticalAlign=middle;whiteSpace=wrap;rounded=0;fontStyle=0;fontFamily=Verdana;fontSize=10;" parent="1" vertex="1">
          <mxGeometry x="729.73" y="1090.55" width="61.61" height="12.29" as="geometry" />
        </mxCell>
        <mxCell id="xuHGBV2yemARD54Rfex9-2" value="&lt;span style=&quot;font-size: 20px; font-weight: 400;&quot;&gt;Level 1&lt;/span&gt;" style="text;html=1;align=left;verticalAlign=middle;whiteSpace=wrap;rounded=0;fillColor=none;fontStyle=1;fontFamily=Verdana;" parent="1" vertex="1">
          <mxGeometry x="41.34" y="964.57" width="88.58" height="12.29" as="geometry" />
        </mxCell>
        <mxCell id="xuHGBV2yemARD54Rfex9-3" value="&lt;font style=&quot;font-size: 20px; font-weight: normal;&quot;&gt;4&lt;/font&gt;" style="text;html=1;align=left;verticalAlign=middle;whiteSpace=wrap;rounded=0;fillColor=none;fontStyle=1;fontFamily=Verdana;" parent="1" vertex="1">
          <mxGeometry x="175.2" y="964.57" width="133.85" height="12.29" as="geometry" />
        </mxCell>
        <mxCell id="xuHGBV2yemARD54Rfex9-4" value="&lt;font style=&quot;font-size: 20px; font-weight: normal;&quot;&gt;Direct Current&lt;/font&gt;" style="text;html=1;align=left;verticalAlign=middle;whiteSpace=wrap;rounded=0;fillColor=none;fontStyle=1;fontFamily=Verdana;" parent="1" vertex="1">
          <mxGeometry x="311.03" y="964.57" width="220.47" height="12.29" as="geometry" />
        </mxCell>
        <mxCell id="xuHGBV2yemARD54Rfex9-5" value="&lt;font style=&quot;font-size: 20px; font-weight: normal;&quot;&gt;Train Network&lt;/font&gt;" style="text;html=1;align=left;verticalAlign=middle;whiteSpace=wrap;rounded=0;fillColor=none;fontStyle=1;fontFamily=Verdana;" parent="1" vertex="1">
          <mxGeometry x="311.03" y="1003.94" width="187" height="12.29" as="geometry" />
        </mxCell>
        <mxCell id="xuHGBV2yemARD54Rfex9-6" value="&lt;font&gt;&lt;span style=&quot;font-size: 20px; font-weight: 400;&quot;&gt;0.032 watts&lt;/span&gt;&lt;/font&gt;" style="text;html=1;align=left;verticalAlign=middle;whiteSpace=wrap;rounded=0;fillColor=none;fontStyle=1;fontFamily=Verdana;" parent="1" vertex="1">
          <mxGeometry x="551.18" y="964.57" width="242.13" height="12.29" as="geometry" />
        </mxCell>
        <mxCell id="xuHGBV2yemARD54Rfex9-7" value="&lt;font style=&quot;font-size: 20px; font-weight: normal;&quot;&gt;teoelectric&lt;/font&gt;" style="text;html=1;align=left;verticalAlign=middle;whiteSpace=wrap;rounded=0;fillColor=none;fontStyle=1;fontFamily=Verdana;" parent="1" vertex="1">
          <mxGeometry x="551.17" y="1003.94" width="145.67" height="12.29" as="geometry" />
        </mxCell>
        <mxCell id="xuHGBV2yemARD54Rfex9-8" value="&lt;span style=&quot;font-size: 20px; font-weight: 400;&quot;&gt;46&lt;/span&gt;" style="text;html=1;align=center;verticalAlign=middle;whiteSpace=wrap;rounded=0;fillColor=none;fontStyle=1;fontFamily=Verdana;" parent="1" vertex="1">
          <mxGeometry x="557.0899999999999" y="1053.15" width="220.47" height="12.29" as="geometry" />
        </mxCell>
        <mxCell id="xuHGBV2yemARD54Rfex9-9" value="&lt;font style=&quot;font-size: 20px; font-weight: normal;&quot;&gt;CFR-2176 Wiring Diagram&lt;/font&gt;" style="text;html=1;align=left;verticalAlign=middle;whiteSpace=wrap;rounded=0;fillColor=none;fontStyle=1;fontFamily=Verdana;" parent="1" vertex="1">
          <mxGeometry x="311.03" y="1068.9" width="192.91" height="12.29" as="geometry" />
        </mxCell>
        <mxCell id="xuHGBV2yemARD54Rfex9-14" value="&lt;font style=&quot;font-size: 20px; font-weight: normal;&quot;&gt;1/1&lt;/font&gt;" style="text;html=1;align=left;verticalAlign=middle;whiteSpace=wrap;rounded=0;fillColor=none;fontStyle=1;fontFamily=Verdana;" parent="1" vertex="1">
          <mxGeometry x="735.934" y="1106.2939999999994" width="49.21" height="12.29" as="geometry" />
        </mxCell>
        <mxCell id="xuHGBV2yemARD54Rfex9-15" value="&lt;font style=&quot;font-size: 20px; font-weight: normal;&quot;&gt;17/08/2025&lt;/font&gt;" style="text;html=1;align=center;verticalAlign=middle;whiteSpace=wrap;rounded=0;fillColor=none;fontStyle=1;fontFamily=Verdana;" parent="1" vertex="1">
          <mxGeometry x="651.5699999999999" y="1106.297" width="19.69" height="12.29" as="geometry" />
        </mxCell>
        <mxCell id="xuHGBV2yemARD54Rfex9-16" value="&lt;font style=&quot;font-size: 20px; font-weight: normal;&quot;&gt;A&lt;/font&gt;" style="text;html=1;align=center;verticalAlign=middle;whiteSpace=wrap;rounded=0;fillColor=none;fontStyle=1;fontFamily=Verdana;" parent="1" vertex="1">
          <mxGeometry x="557.0884999999998" y="1106.297" width="19.69" height="12.29" as="geometry" />
        </mxCell>
        <mxCell id="v2AuxBMflL_ghMZSKkXt-2" value="&lt;font style=&quot;font-size: 20px; font-weight: normal;&quot;&gt;The connections are made&lt;/font&gt;" style="text;html=1;align=left;verticalAlign=middle;whiteSpace=wrap;rounded=0;fillColor=none;fontStyle=1;fontFamily=Verdana;" parent="1" vertex="1">
          <mxGeometry x="41.33" y="1003.94" width="277.57" height="12.29" as="geometry" />
        </mxCell>
        <mxCell id="v2AuxBMflL_ghMZSKkXt-3" value="&lt;font style=&quot;font-size: 20px; font-weight: normal;&quot;&gt;using soldering wire.&lt;/font&gt;" style="text;html=1;align=left;verticalAlign=middle;whiteSpace=wrap;rounded=0;fillColor=none;fontStyle=1;fontFamily=Verdana;" parent="1" vertex="1">
          <mxGeometry x="41.33" y="1027.56" width="261.82" height="12.29" as="geometry" />
        </mxCell>
        <mxCell id="v2AuxBMflL_ghMZSKkXt-4" value="&lt;font style=&quot;font-size: 20px; font-weight: normal;&quot;&gt;Resistors&amp;nbsp;&lt;/font&gt;&lt;font style=&quot;font-size: 20px;&quot;&gt;(R)&lt;/font&gt;&lt;font style=&quot;font-size: 20px; font-weight: normal;&quot;&gt;&amp;nbsp;value: 1K&lt;/font&gt;" style="text;html=1;align=left;verticalAlign=middle;whiteSpace=wrap;rounded=0;fillColor=none;fontStyle=1;fontFamily=Verdana;" parent="1" vertex="1">
          <mxGeometry x="41.34" y="1051.97" width="275.59" height="12.29" as="geometry" />
        </mxCell>
        <mxCell id="v2AuxBMflL_ghMZSKkXt-5" value="&lt;font style=&quot;font-size: 20px; font-weight: normal;&quot;&gt;LEDs&amp;nbsp;&lt;/font&gt;&lt;font style=&quot;font-size: 20px;&quot;&gt;(L)&lt;/font&gt;&lt;font style=&quot;font-size: 20px; font-weight: normal;&quot;&gt;&amp;nbsp;&lt;i&gt;V&lt;/i&gt;&lt;/font&gt;&lt;font style=&quot;font-weight: normal; font-size: 16.6667px;&quot;&gt;&lt;sub&gt;&lt;i&gt;F&lt;/i&gt;&amp;nbsp;&lt;/sub&gt;&lt;/font&gt;&lt;span style=&quot;font-size: 20px; font-weight: 400;&quot;&gt;≈ 1.8 V&lt;/span&gt;" style="text;html=1;align=left;verticalAlign=middle;whiteSpace=wrap;rounded=0;fillColor=none;fontStyle=1;fontFamily=Verdana;" parent="1" vertex="1">
          <mxGeometry x="41.33" y="1081.1002" width="263.79" height="12.29" as="geometry" />
        </mxCell>
        <mxCell id="6hWZyFMKmf4ATLRzoSVG-1" value="&lt;font color=&quot;#000000&quot;&gt;5mm LED&lt;/font&gt;" style="text;html=1;align=center;verticalAlign=middle;whiteSpace=wrap;rounded=0;fontFamily=Verdana;fontSize=12;fontColor=#E41B17;fontStyle=1;labelBackgroundColor=none;labelBorderColor=none;textShadow=0;" parent="1" vertex="1">
          <mxGeometry x="251.96699999999998" y="265.737" width="73.81" height="18.19" as="geometry" />
        </mxCell>
        <mxCell id="EbSPhEkVPLGqZk5dMYmd-1" value="&lt;span style=&quot;font-size: 20px; font-weight: 400;&quot;&gt;Power value is&amp;nbsp;&lt;/span&gt;&lt;span style=&quot;font-size: 20px;&quot;&gt;ideal&lt;/span&gt;&lt;span style=&quot;font-size: 20px; font-weight: 400;&quot;&gt;.&lt;/span&gt;" style="text;html=1;align=left;verticalAlign=middle;whiteSpace=wrap;rounded=0;fillColor=none;fontStyle=1;fontFamily=Verdana;" parent="1" vertex="1">
          <mxGeometry x="41.33" y="1102.36" width="255.91" height="12.29" as="geometry" />
        </mxCell>
        <mxCell id="rriGDJWvNKK0h5WxVhIS-1" value="" style="shape=image;verticalLabelPosition=bottom;verticalAlign=top;imageAspect=0;aspect=fixed;image=data:image/svg+xml,PHN2ZyB4bWxucz0iaHR0cDovL3d3dy53My5vcmcvMjAwMC9zdmciIHZpZXdCb3g9IjAgMCAxMDI0IDEwMjQiIGhlaWdodD0iMTAyNCIgd2lkdGg9IjEwMjQiIGlkPSJzdmcyIiB2ZXJzaW9uPSIxLjEiPiYjeGE7ICA8ZGVmcyBpZD0iZGVmczYiPiYjeGE7ICAgIDxjbGlwUGF0aCBpZD0iY2xpcFBhdGgxNiIgY2xpcFBhdGhVbml0cz0idXNlclNwYWNlT25Vc2UiPiYjeGE7ICAgICAgPHBhdGggaWQ9InBhdGgxNCIgZD0iTSAzODY3LDAgSCA5NDEwIFYgMTI3OTkgSCAzODY3IFYgMCIvPiYjeGE7ICAgIDwvY2xpcFBhdGg+JiN4YTsgIDwvZGVmcz4mI3hhOyAgPGcgdHJhbnNmb3JtPSJtYXRyaXgoMC4wOCwwLDAsLTAuMDgsMCwxMDI0KSIgaWQ9Imc4Ij4mI3hhOyAgICA8ZyBpZD0iZzEwIj4mI3hhOyAgICAgIDxnIGNsaXAtcGF0aD0idXJsKCNjbGlwUGF0aDE2KSIgaWQ9ImcxMiI+JiN4YTsgICAgICAgIDxwYXRoIGlkPSJwYXRoMTgiIHN0eWxlPSJmaWxsOm5vbmU7c3Ryb2tlOiMwMDAwMDA7c3Ryb2tlLXdpZHRoOjE3O3N0cm9rZS1saW5lY2FwOnJvdW5kO3N0cm9rZS1saW5lam9pbjpyb3VuZDtzdHJva2UtbWl0ZXJsaW1pdDoxMDtzdHJva2UtZGFzaGFycmF5Om5vbmU7c3Ryb2tlLW9wYWNpdHk6MSIgZD0iTSA4NjIzLDIwMSBWIDQwMTAiLz4mI3hhOyAgICAgICAgPHBhdGggaWQ9InBhdGgyMCIgc3R5bGU9ImZpbGw6bm9uZTtzdHJva2U6IzAwMDAwMDtzdHJva2Utd2lkdGg6MTc7c3Ryb2tlLWxpbmVjYXA6cm91bmQ7c3Ryb2tlLWxpbmVqb2luOnJvdW5kO3N0cm9rZS1taXRlcmxpbWl0OjEwO3N0cm9rZS1kYXNoYXJyYXk6bm9uZTtzdHJva2Utb3BhY2l0eToxIiBkPSJNIDUyODksMjAxIFYgNDAxMCIvPiYjeGE7ICAgICAgICA8cGF0aCBpZD0icGF0aDIyIiBzdHlsZT0iZmlsbDpub25lO3N0cm9rZTojMDAwMDAwO3N0cm9rZS13aWR0aDoxNztzdHJva2UtbGluZWNhcDpyb3VuZDtzdHJva2UtbGluZWpvaW46cm91bmQ7c3Ryb2tlLW1pdGVybGltaXQ6MTA7c3Ryb2tlLWRhc2hhcnJheTpub25lO3N0cm9rZS1vcGFjaXR5OjEiIGQ9Im0gODQ2NC41LDQzIGMgODcuNTM3MSwwIDE1OC41LDcwLjk2Mjg2IDE1OC41LDE1OC41Ii8+JiN4YTsgICAgICAgIDxnIHRyYW5zZm9ybT0icm90YXRlKDE4MCwzOTk0LjI1LDEwMC43NSkiIGlkPSJnMjQiPiYjeGE7ICAgICAgICAgIDxwYXRoIGlkPSJwYXRoMjYiIHN0eWxlPSJmaWxsOm5vbmU7c3Ryb2tlOiMwMDAwMDA7c3Ryb2tlLXdpZHRoOjE3O3N0cm9rZS1saW5lY2FwOnJvdW5kO3N0cm9rZS1saW5lam9pbjpyb3VuZDtzdHJva2UtbWl0ZXJsaW1pdDoxMDtzdHJva2UtZGFzaGFycmF5Om5vbmU7c3Ryb2tlLW9wYWNpdHk6MSIgZD0iTSAxNTguNSwwIEMgMTU4LjUsODcuNTM3MTQgODcuNTM3MTQsMTU4LjUgMCwxNTguNSIvPiYjeGE7ICAgICAgICA8L2c+JiN4YTsgICAgICAgIDxwYXRoIGlkPSJwYXRoMjgiIHN0eWxlPSJmaWxsOm5vbmU7c3Ryb2tlOiMwMDAwMDA7c3Ryb2tlLXdpZHRoOjE3O3N0cm9rZS1saW5lY2FwOnJvdW5kO3N0cm9rZS1saW5lam9pbjpyb3VuZDtzdHJva2UtbWl0ZXJsaW1pdDoxMDtzdHJva2UtZGFzaGFycmF5Om5vbmU7c3Ryb2tlLW9wYWNpdHk6MSIgZD0iTSA3ODI5LDQwMTAgViAyMDEiLz4mI3hhOyAgICAgICAgPHBhdGggaWQ9InBhdGgzMCIgc3R5bGU9ImZpbGw6bm9uZTtzdHJva2U6IzAwMDAwMDtzdHJva2Utd2lkdGg6MTc7c3Ryb2tlLWxpbmVjYXA6cm91bmQ7c3Ryb2tlLWxpbmVqb2luOnJvdW5kO3N0cm9rZS1taXRlcmxpbWl0OjEwO3N0cm9rZS1kYXNoYXJyYXk6bm9uZTtzdHJva2Utb3BhY2l0eToxIiBkPSJtIDc5ODgsNDIgaCA0NzYiLz4mI3hhOyAgICAgICAgPGcgdHJhbnNmb3JtPSJyb3RhdGUoMTgwLDIzMjcuMjUsMTAwLjc1KSIgaWQ9ImczMiI+JiN4YTsgICAgICAgICAgPHBhdGggaWQ9InBhdGgzNCIgc3R5bGU9ImZpbGw6bm9uZTtzdHJva2U6IzAwMDAwMDtzdHJva2Utd2lkdGg6MTc7c3Ryb2tlLWxpbmVjYXA6cm91bmQ7c3Ryb2tlLWxpbmVqb2luOnJvdW5kO3N0cm9rZS1taXRlcmxpbWl0OjEwO3N0cm9rZS1kYXNoYXJyYXk6bm9uZTtzdHJva2Utb3BhY2l0eToxIiBkPSJNIDE1OC41LDAgQyAxNTguNSw4Ny41MzcxNCA4Ny41MzcxNCwxNTguNSAwLDE1OC41Ii8+JiN4YTsgICAgICAgIDwvZz4mI3hhOyAgICAgICAgPHBhdGggaWQ9InBhdGgzNiIgc3R5bGU9ImZpbGw6bm9uZTtzdHJva2U6IzAwMDAwMDtzdHJva2Utd2lkdGg6MTc7c3Ryb2tlLWxpbmVjYXA6cm91bmQ7c3Ryb2tlLWxpbmVqb2luOnJvdW5kO3N0cm9rZS1taXRlcmxpbWl0OjEwO3N0cm9rZS1kYXNoYXJyYXk6bm9uZTtzdHJva2Utb3BhY2l0eToxIiBkPSJNIDQ0OTUsNDAxMCBWIDIwMSIvPiYjeGE7ICAgICAgICA8cGF0aCBpZD0icGF0aDM4IiBzdHlsZT0iZmlsbDpub25lO3N0cm9rZTojMDAwMDAwO3N0cm9rZS13aWR0aDoxNztzdHJva2UtbGluZWNhcDpyb3VuZDtzdHJva2UtbGluZWpvaW46cm91bmQ7c3Ryb2tlLW1pdGVybGltaXQ6MTA7c3Ryb2tlLWRhc2hhcnJheTpub25lO3N0cm9rZS1vcGFjaXR5OjEiIGQ9Im0gNTEzMC41LDQzIGMgODcuNTM3MSwwIDE1OC41LDcwLjk2Mjg2IDE1OC41LDE1OC41Ii8+JiN4YTsgICAgICAgIDxwYXRoIGlkPSJwYXRoNDAiIHN0eWxlPSJmaWxsOm5vbmU7c3Ryb2tlOiMwMDAwMDA7c3Ryb2tlLXdpZHRoOjE3O3N0cm9rZS1saW5lY2FwOnJvdW5kO3N0cm9rZS1saW5lam9pbjpyb3VuZDtzdHJva2UtbWl0ZXJsaW1pdDoxMDtzdHJva2UtZGFzaGFycmF5Om5vbmU7c3Ryb2tlLW9wYWNpdHk6MSIgZD0ibSA0NjU0LDQyIGggNDc2Ii8+JiN4YTsgICAgICAgIDxwYXRoIGlkPSJwYXRoNDIiIHN0eWxlPSJmaWxsOm5vbmU7c3Ryb2tlOiMwMDAwMDA7c3Ryb2tlLXdpZHRoOjE3O3N0cm9rZS1saW5lY2FwOnJvdW5kO3N0cm9rZS1saW5lam9pbjpyb3VuZDtzdHJva2UtbWl0ZXJsaW1pdDoxMDtzdHJva2UtZGFzaGFycmF5Om5vbmU7c3Ryb2tlLW9wYWNpdHk6MSIgZD0ibSA0MDk4LDQwMTAgaCA2MCA2MyA2NiA2OSA3MiA3NSA3NyA4MCA4MyA4NCA4NyA4OSA5MSA5MyA5NCA5NiA5OCA5OCAxMDAgMTAxIDEwMiAxMDMgMTAzIDEwMyAxMDQgMTA0IDEwNCAxMDQgMTA0IDEwMyAxMDMgMTAyIDEwMSAxMDAgOTkgOTcgOTcgOTQgOTMgOTEgOTAgODcgODUgODIgODEgNzcgNzUgNzMgNjkgNjcgNjMgNjAgNTcgNTQgNTEgNDcgNDMgNDAgMzYgMzMgMjkgMjUgMjEgMTcgMTQgMTAgNiAyIi8+JiN4YTsgICAgICAgIDxwYXRoIGlkPSJwYXRoNDQiIHN0eWxlPSJmaWxsOm5vbmU7c3Ryb2tlOiMwMDAwMDA7c3Ryb2tlLXdpZHRoOjE3O3N0cm9rZS1saW5lY2FwOnJvdW5kO3N0cm9rZS1saW5lam9pbjpyb3VuZDtzdHJva2UtbWl0ZXJsaW1pdDoxMDtzdHJva2UtZGFzaGFycmF5Om5vbmU7c3Ryb2tlLW9wYWNpdHk6MSIgZD0ibSA2NDI3LDEyNzQxIGggLTIgLTYgLTggLTExIC0xMCAtOSAtNiAtMiIvPiYjeGE7ICAgICAgICA8cGF0aCBpZD0icGF0aDQ2IiBzdHlsZT0iZmlsbDpub25lO3N0cm9rZTojMDAwMDAwO3N0cm9rZS13aWR0aDoxNztzdHJva2UtbGluZWNhcDpyb3VuZDtzdHJva2UtbGluZWpvaW46cm91bmQ7c3Ryb2tlLW1pdGVybGltaXQ6MTA7c3Ryb2tlLWRhc2hhcnJheTpub25lO3N0cm9rZS1vcGFjaXR5OjEiIGQ9Im0gNDAxOSw1OTk0IGggMiA3IDExIDE2IDE5IDI0Ii8+JiN4YTsgICAgICAgIDxwYXRoIGlkPSJwYXRoNDgiIHN0eWxlPSJmaWxsOm5vbmU7c3Ryb2tlOiMwMDAwMDA7c3Ryb2tlLXdpZHRoOjE3O3N0cm9rZS1saW5lY2FwOnJvdW5kO3N0cm9rZS1saW5lam9pbjpyb3VuZDtzdHJva2UtbWl0ZXJsaW1pdDoxMDtzdHJva2UtZGFzaGFycmF5Om5vbmU7c3Ryb2tlLW9wYWNpdHk6MSIgZD0ibSA0MDk4LDQwMTAgaCAtMyBsIC00LDEgaCAtNCBsIC00LDEgLTMsMSAtNCwxIC00LDEgLTMsMSAtNCwyIC0zLDEgLTQsMiAtMywyIC0zLDMgLTMsMiAtMywyIC0zLDMgLTMsMyAtMiwzIC0zLDMgLTIsMyAtMiwzIC0yLDQgLTIsMyAtMiw0IC0xLDMgLTEsNCAtMSw0IC0xLDQgLTEsNCAtMSw0IHYgNCA0IDE4MjUgMSAxIDEgMiAxIDIgMiAyIDIgMiAzIDIgMyAyIDMgMyA2IDcgNiA3IDcgMTQiLz4mI3hhOyAgICAgICAgPHBhdGggaWQ9InBhdGg1MCIgc3R5bGU9ImZpbGw6bm9uZTtzdHJva2U6IzAwMDAwMDtzdHJva2Utd2lkdGg6MTc7c3Ryb2tlLWxpbmVjYXA6cm91bmQ7c3Ryb2tlLWxpbmVqb2luOnJvdW5kO3N0cm9rZS1taXRlcmxpbWl0OjEwO3N0cm9rZS1kYXNoYXJyYXk6bm9uZTtzdHJva2Utb3BhY2l0eToxIiBkPSJtIDkxNzksNTk5NCBoIC0yIC02IC0xMCAtMTQgLTE3IC0yMSAtMjUgLTI5IC0zMyAtMzYgLTQwIC00MyAtNDcgLTUxIC01NCAtNTcgLTYwIC02MyAtNjcgLTY5IC03MyAtNzUgLTc3IC04MSAtODIgLTg1IC04NyAtOTAgLTkxIC05MyAtOTQgLTk3IC05NyAtOTkgLTEwMCAtMTAxIC0xMDIgLTEwMyAtMTAzIC0xMDQgLTEwNCAtMTA0IC0xMDQgLTEwNCAtMTAzIC0xMDMgLTEwMyAtMTAyIC0xMDEgLTEwMCAtOTggLTk4IC05NiAtOTQgLTkzIC05MSAtODkgLTg3IC04NCAtODMgLTgwIC03NyAtNzUgLTcyIC02OSAtNjYgLTYzIC02MCAtMyAtNCAtNCBsIC00LC0xIC0zLC0xIC00LC0xIC00LC0xIC0zLC0xIC00LC0yIC0zLC0yIC00LC0xIC0zLC0yIC0zLC0zIC0zLC0yIC0zLC0zIC0zLC0yIC0zLC0zIC0yLC0zIC0zLC0zIC0yLC0zIC0yLC0zIC0yLC00IC0yLC0zIC0yLC00IC0xLC00IC0xLC0zIC0xLC00IC0xLC00IC0xLC00IC0xLC00IHYgLTQgLTQiLz4mI3hhOyAgICAgICAgPGcgdHJhbnNmb3JtPSJyb3RhdGUoMTc5LjMyNDQ3LDMxNTUuOTc5Myw1MjM4LjUzNzgpIiBpZD0iZzUyIj4mI3hhOyAgICAgICAgICA8cGF0aCBpZD0icGF0aDU0IiBzdHlsZT0iZmlsbDpub25lO3N0cm9rZTojMDAwMDAwO3N0cm9rZS13aWR0aDoxNztzdHJva2UtbGluZWNhcDpyb3VuZDtzdHJva2UtbGluZWpvaW46cm91bmQ7c3Ryb2tlLW1pdGVybGltaXQ6MTA7c3Ryb2tlLWRhc2hhcnJheTpub25lO3N0cm9rZS1vcGFjaXR5OjEiIGQ9Ik0gMjcuMTM5NzYsLTIzMDEuMzQwMSBDIDEyODcuNTQ5MywtMjI4Ni40NzU4IDIzMDEuNSwtMTI2MC40OTcyIDIzMDEuNSwwIi8+JiN4YTsgICAgICAgIDwvZz4mI3hhOyAgICAgICAgPGcgdHJhbnNmb3JtPSJyb3RhdGUoMTgwLDMyMTMuNzUsNTIxOS43NSkiIGlkPSJnNTYiPiYjeGE7ICAgICAgICAgIDxwYXRoIGlkPSJwYXRoNTgiIHN0eWxlPSJmaWxsOm5vbmU7c3Ryb2tlOiMwMDAwMDA7c3Ryb2tlLXdpZHRoOjE3O3N0cm9rZS1saW5lY2FwOnJvdW5kO3N0cm9rZS1saW5lam9pbjpyb3VuZDtzdHJva2UtbWl0ZXJsaW1pdDoxMDtzdHJva2UtZGFzaGFycmF5Om5vbmU7c3Ryb2tlLW9wYWNpdHk6MSIgZD0iTSAtMjMwMS4zNDAxLC0yNy4xMzk3NiBDIC0yMjg2LjQ3NTgsLTEyODcuNTQ5MyAtMTI2MC40OTcyLC0yMzAxLjUgMCwtMjMwMS41Ii8+JiN4YTsgICAgICAgIDwvZz4mI3hhOyAgICAgICAgPHBhdGggaWQ9InBhdGg2MCIgc3R5bGU9ImZpbGw6bm9uZTtzdHJva2U6IzAwMDAwMDtzdHJva2Utd2lkdGg6MTc7c3Ryb2tlLWxpbmVjYXA6cm91bmQ7c3Ryb2tlLWxpbmVqb2luOnJvdW5kO3N0cm9rZS1taXRlcmxpbWl0OjEwO3N0cm9rZS1kYXNoYXJyYXk6bm9uZTtzdHJva2Utb3BhY2l0eToxIiBkPSJtIDg3MjksMTA0NjYgNTMsLTQ0NzIiLz4mI3hhOyAgICAgICAgPHBhdGggaWQ9InBhdGg2MiIgc3R5bGU9ImZpbGw6bm9uZTtzdHJva2U6IzAwMDAwMDtzdHJva2Utd2lkdGg6MTc7c3Ryb2tlLWxpbmVjYXA6cm91bmQ7c3Ryb2tlLWxpbmVqb2luOnJvdW5kO3N0cm9rZS1taXRlcmxpbWl0OjEwO3N0cm9rZS1kYXNoYXJyYXk6bm9uZTtzdHJva2Utb3BhY2l0eToxIiBkPSJNIDQwNzIsMTA0NjYgNDAxOSw1OTk1Ii8+JiN4YTsgICAgICAgIDxwYXRoIGlkPSJwYXRoNjQiIHN0eWxlPSJmaWxsOm5vbmU7c3Ryb2tlOiMwMDAwMDA7c3Ryb2tlLXdpZHRoOjE3O3N0cm9rZS1saW5lY2FwOnJvdW5kO3N0cm9rZS1saW5lam9pbjpyb3VuZDtzdHJva2UtbWl0ZXJsaW1pdDoxMDtzdHJva2UtZGFzaGFycmF5Om5vbmU7c3Ryb2tlLW9wYWNpdHk6MSIgZD0ibSA5MTc5LjUsNDAxMSBjIDQzLjkwNjMsMCA3OS41LDM1LjU5MzMgNzkuNSw3OS41Ii8+JiN4YTsgICAgICAgIDxnIHRyYW5zZm9ybT0icm90YXRlKDE4MCw0NTg5Ljc1LDI5NTcuNzUpIiBpZD0iZzY2Ij4mI3hhOyAgICAgICAgICA8cGF0aCBpZD0icGF0aDY4IiBzdHlsZT0iZmlsbDpub25lO3N0cm9rZTojMDAwMDAwO3N0cm9rZS13aWR0aDoxNztzdHJva2UtbGluZWNhcDpyb3VuZDtzdHJva2UtbGluZWpvaW46cm91bmQ7c3Ryb2tlLW1pdGVybGltaXQ6MTA7c3Ryb2tlLWRhc2hhcnJheTpub25lO3N0cm9rZS1vcGFjaXR5OjEiIGQ9Im0gLTc5LjUsMCBjIDAsLTQzLjkwNjY0IDM1LjU5MzM2LC03OS41IDc5LjUsLTc5LjUiLz4mI3hhOyAgICAgICAgPC9nPiYjeGE7ICAgICAgICA8cGF0aCBpZD0icGF0aDcwIiBzdHlsZT0iZmlsbDpub25lO3N0cm9rZTojMDAwMDAwO3N0cm9rZS13aWR0aDoxNztzdHJva2UtbGluZWNhcDpyb3VuZDtzdHJva2UtbGluZWpvaW46cm91bmQ7c3Ryb2tlLW1pdGVybGltaXQ6MTA7c3Ryb2tlLWRhc2hhcnJheTpub25lO3N0cm9rZS1vcGFjaXR5OjEiIGQ9Im0gNDAxOSw1OTE1IHYgMSAxIDEgMiAxIDIgMiAyIDIgMiAzIDIgMyAyIDMgMyA2IDcgNiA3IDcgMTQiLz4mI3hhOyAgICAgICAgPHBhdGggaWQ9InBhdGg3MiIgc3R5bGU9ImZpbGw6bm9uZTtzdHJva2U6IzAwMDAwMDtzdHJva2Utd2lkdGg6MTc7c3Ryb2tlLWxpbmVjYXA6cm91bmQ7c3Ryb2tlLWxpbmVqb2luOnJvdW5kO3N0cm9rZS1taXRlcmxpbWl0OjEwO3N0cm9rZS1kYXNoYXJyYXk6bm9uZTtzdHJva2Utb3BhY2l0eToxIiBkPSJNIDkyNTgsNDA5MCBWIDU5MTUiLz4mI3hhOyAgICAgIDwvZz4mI3hhOyAgICA8L2c+JiN4YTsgIDwvZz4mI3hhOzwvc3ZnPg==;flipV=0;flipH=1;" parent="1" vertex="1">
          <mxGeometry x="318.8500000000001" y="251.9699999999999" width="70.93" height="70.93" as="geometry" />
        </mxCell>
        <mxCell id="rriGDJWvNKK0h5WxVhIS-2" value="" style="shape=image;verticalLabelPosition=bottom;verticalAlign=top;imageAspect=0;aspect=fixed;image=data:image/svg+xml,PHN2ZyB4bWxucz0iaHR0cDovL3d3dy53My5vcmcvMjAwMC9zdmciIHZpZXdCb3g9IjAgMCAxMDI0IDEwMjQiIGhlaWdodD0iMTAyNCIgd2lkdGg9IjEwMjQiIGlkPSJzdmcyIiB2ZXJzaW9uPSIxLjEiPiYjeGE7ICA8ZGVmcyBpZD0iZGVmczYiPiYjeGE7ICAgIDxjbGlwUGF0aCBpZD0iY2xpcFBhdGgxNiIgY2xpcFBhdGhVbml0cz0idXNlclNwYWNlT25Vc2UiPiYjeGE7ICAgICAgPHBhdGggaWQ9InBhdGgxNCIgZD0iTSAzODY3LDAgSCA5NDEwIFYgMTI3OTkgSCAzODY3IFYgMCIvPiYjeGE7ICAgIDwvY2xpcFBhdGg+JiN4YTsgIDwvZGVmcz4mI3hhOyAgPGcgdHJhbnNmb3JtPSJtYXRyaXgoMC4wOCwwLDAsLTAuMDgsMCwxMDI0KSIgaWQ9Imc4Ij4mI3hhOyAgICA8ZyBpZD0iZzEwIj4mI3hhOyAgICAgIDxnIGNsaXAtcGF0aD0idXJsKCNjbGlwUGF0aDE2KSIgaWQ9ImcxMiI+JiN4YTsgICAgICAgIDxwYXRoIGlkPSJwYXRoMTgiIHN0eWxlPSJmaWxsOm5vbmU7c3Ryb2tlOiMwMDAwMDA7c3Ryb2tlLXdpZHRoOjE3O3N0cm9rZS1saW5lY2FwOnJvdW5kO3N0cm9rZS1saW5lam9pbjpyb3VuZDtzdHJva2UtbWl0ZXJsaW1pdDoxMDtzdHJva2UtZGFzaGFycmF5Om5vbmU7c3Ryb2tlLW9wYWNpdHk6MSIgZD0iTSA4NjIzLDIwMSBWIDQwMTAiLz4mI3hhOyAgICAgICAgPHBhdGggaWQ9InBhdGgyMCIgc3R5bGU9ImZpbGw6bm9uZTtzdHJva2U6IzAwMDAwMDtzdHJva2Utd2lkdGg6MTc7c3Ryb2tlLWxpbmVjYXA6cm91bmQ7c3Ryb2tlLWxpbmVqb2luOnJvdW5kO3N0cm9rZS1taXRlcmxpbWl0OjEwO3N0cm9rZS1kYXNoYXJyYXk6bm9uZTtzdHJva2Utb3BhY2l0eToxIiBkPSJNIDUyODksMjAxIFYgNDAxMCIvPiYjeGE7ICAgICAgICA8cGF0aCBpZD0icGF0aDIyIiBzdHlsZT0iZmlsbDpub25lO3N0cm9rZTojMDAwMDAwO3N0cm9rZS13aWR0aDoxNztzdHJva2UtbGluZWNhcDpyb3VuZDtzdHJva2UtbGluZWpvaW46cm91bmQ7c3Ryb2tlLW1pdGVybGltaXQ6MTA7c3Ryb2tlLWRhc2hhcnJheTpub25lO3N0cm9rZS1vcGFjaXR5OjEiIGQ9Im0gODQ2NC41LDQzIGMgODcuNTM3MSwwIDE1OC41LDcwLjk2Mjg2IDE1OC41LDE1OC41Ii8+JiN4YTsgICAgICAgIDxnIHRyYW5zZm9ybT0icm90YXRlKDE4MCwzOTk0LjI1LDEwMC43NSkiIGlkPSJnMjQiPiYjeGE7ICAgICAgICAgIDxwYXRoIGlkPSJwYXRoMjYiIHN0eWxlPSJmaWxsOm5vbmU7c3Ryb2tlOiMwMDAwMDA7c3Ryb2tlLXdpZHRoOjE3O3N0cm9rZS1saW5lY2FwOnJvdW5kO3N0cm9rZS1saW5lam9pbjpyb3VuZDtzdHJva2UtbWl0ZXJsaW1pdDoxMDtzdHJva2UtZGFzaGFycmF5Om5vbmU7c3Ryb2tlLW9wYWNpdHk6MSIgZD0iTSAxNTguNSwwIEMgMTU4LjUsODcuNTM3MTQgODcuNTM3MTQsMTU4LjUgMCwxNTguNSIvPiYjeGE7ICAgICAgICA8L2c+JiN4YTsgICAgICAgIDxwYXRoIGlkPSJwYXRoMjgiIHN0eWxlPSJmaWxsOm5vbmU7c3Ryb2tlOiMwMDAwMDA7c3Ryb2tlLXdpZHRoOjE3O3N0cm9rZS1saW5lY2FwOnJvdW5kO3N0cm9rZS1saW5lam9pbjpyb3VuZDtzdHJva2UtbWl0ZXJsaW1pdDoxMDtzdHJva2UtZGFzaGFycmF5Om5vbmU7c3Ryb2tlLW9wYWNpdHk6MSIgZD0iTSA3ODI5LDQwMTAgViAyMDEiLz4mI3hhOyAgICAgICAgPHBhdGggaWQ9InBhdGgzMCIgc3R5bGU9ImZpbGw6bm9uZTtzdHJva2U6IzAwMDAwMDtzdHJva2Utd2lkdGg6MTc7c3Ryb2tlLWxpbmVjYXA6cm91bmQ7c3Ryb2tlLWxpbmVqb2luOnJvdW5kO3N0cm9rZS1taXRlcmxpbWl0OjEwO3N0cm9rZS1kYXNoYXJyYXk6bm9uZTtzdHJva2Utb3BhY2l0eToxIiBkPSJtIDc5ODgsNDIgaCA0NzYiLz4mI3hhOyAgICAgICAgPGcgdHJhbnNmb3JtPSJyb3RhdGUoMTgwLDIzMjcuMjUsMTAwLjc1KSIgaWQ9ImczMiI+JiN4YTsgICAgICAgICAgPHBhdGggaWQ9InBhdGgzNCIgc3R5bGU9ImZpbGw6bm9uZTtzdHJva2U6IzAwMDAwMDtzdHJva2Utd2lkdGg6MTc7c3Ryb2tlLWxpbmVjYXA6cm91bmQ7c3Ryb2tlLWxpbmVqb2luOnJvdW5kO3N0cm9rZS1taXRlcmxpbWl0OjEwO3N0cm9rZS1kYXNoYXJyYXk6bm9uZTtzdHJva2Utb3BhY2l0eToxIiBkPSJNIDE1OC41LDAgQyAxNTguNSw4Ny41MzcxNCA4Ny41MzcxNCwxNTguNSAwLDE1OC41Ii8+JiN4YTsgICAgICAgIDwvZz4mI3hhOyAgICAgICAgPHBhdGggaWQ9InBhdGgzNiIgc3R5bGU9ImZpbGw6bm9uZTtzdHJva2U6IzAwMDAwMDtzdHJva2Utd2lkdGg6MTc7c3Ryb2tlLWxpbmVjYXA6cm91bmQ7c3Ryb2tlLWxpbmVqb2luOnJvdW5kO3N0cm9rZS1taXRlcmxpbWl0OjEwO3N0cm9rZS1kYXNoYXJyYXk6bm9uZTtzdHJva2Utb3BhY2l0eToxIiBkPSJNIDQ0OTUsNDAxMCBWIDIwMSIvPiYjeGE7ICAgICAgICA8cGF0aCBpZD0icGF0aDM4IiBzdHlsZT0iZmlsbDpub25lO3N0cm9rZTojMDAwMDAwO3N0cm9rZS13aWR0aDoxNztzdHJva2UtbGluZWNhcDpyb3VuZDtzdHJva2UtbGluZWpvaW46cm91bmQ7c3Ryb2tlLW1pdGVybGltaXQ6MTA7c3Ryb2tlLWRhc2hhcnJheTpub25lO3N0cm9rZS1vcGFjaXR5OjEiIGQ9Im0gNTEzMC41LDQzIGMgODcuNTM3MSwwIDE1OC41LDcwLjk2Mjg2IDE1OC41LDE1OC41Ii8+JiN4YTsgICAgICAgIDxwYXRoIGlkPSJwYXRoNDAiIHN0eWxlPSJmaWxsOm5vbmU7c3Ryb2tlOiMwMDAwMDA7c3Ryb2tlLXdpZHRoOjE3O3N0cm9rZS1saW5lY2FwOnJvdW5kO3N0cm9rZS1saW5lam9pbjpyb3VuZDtzdHJva2UtbWl0ZXJsaW1pdDoxMDtzdHJva2UtZGFzaGFycmF5Om5vbmU7c3Ryb2tlLW9wYWNpdHk6MSIgZD0ibSA0NjU0LDQyIGggNDc2Ii8+JiN4YTsgICAgICAgIDxwYXRoIGlkPSJwYXRoNDIiIHN0eWxlPSJmaWxsOm5vbmU7c3Ryb2tlOiMwMDAwMDA7c3Ryb2tlLXdpZHRoOjE3O3N0cm9rZS1saW5lY2FwOnJvdW5kO3N0cm9rZS1saW5lam9pbjpyb3VuZDtzdHJva2UtbWl0ZXJsaW1pdDoxMDtzdHJva2UtZGFzaGFycmF5Om5vbmU7c3Ryb2tlLW9wYWNpdHk6MSIgZD0ibSA0MDk4LDQwMTAgaCA2MCA2MyA2NiA2OSA3MiA3NSA3NyA4MCA4MyA4NCA4NyA4OSA5MSA5MyA5NCA5NiA5OCA5OCAxMDAgMTAxIDEwMiAxMDMgMTAzIDEwMyAxMDQgMTA0IDEwNCAxMDQgMTA0IDEwMyAxMDMgMTAyIDEwMSAxMDAgOTkgOTcgOTcgOTQgOTMgOTEgOTAgODcgODUgODIgODEgNzcgNzUgNzMgNjkgNjcgNjMgNjAgNTcgNTQgNTEgNDcgNDMgNDAgMzYgMzMgMjkgMjUgMjEgMTcgMTQgMTAgNiAyIi8+JiN4YTsgICAgICAgIDxwYXRoIGlkPSJwYXRoNDQiIHN0eWxlPSJmaWxsOm5vbmU7c3Ryb2tlOiMwMDAwMDA7c3Ryb2tlLXdpZHRoOjE3O3N0cm9rZS1saW5lY2FwOnJvdW5kO3N0cm9rZS1saW5lam9pbjpyb3VuZDtzdHJva2UtbWl0ZXJsaW1pdDoxMDtzdHJva2UtZGFzaGFycmF5Om5vbmU7c3Ryb2tlLW9wYWNpdHk6MSIgZD0ibSA2NDI3LDEyNzQxIGggLTIgLTYgLTggLTExIC0xMCAtOSAtNiAtMiIvPiYjeGE7ICAgICAgICA8cGF0aCBpZD0icGF0aDQ2IiBzdHlsZT0iZmlsbDpub25lO3N0cm9rZTojMDAwMDAwO3N0cm9rZS13aWR0aDoxNztzdHJva2UtbGluZWNhcDpyb3VuZDtzdHJva2UtbGluZWpvaW46cm91bmQ7c3Ryb2tlLW1pdGVybGltaXQ6MTA7c3Ryb2tlLWRhc2hhcnJheTpub25lO3N0cm9rZS1vcGFjaXR5OjEiIGQ9Im0gNDAxOSw1OTk0IGggMiA3IDExIDE2IDE5IDI0Ii8+JiN4YTsgICAgICAgIDxwYXRoIGlkPSJwYXRoNDgiIHN0eWxlPSJmaWxsOm5vbmU7c3Ryb2tlOiMwMDAwMDA7c3Ryb2tlLXdpZHRoOjE3O3N0cm9rZS1saW5lY2FwOnJvdW5kO3N0cm9rZS1saW5lam9pbjpyb3VuZDtzdHJva2UtbWl0ZXJsaW1pdDoxMDtzdHJva2UtZGFzaGFycmF5Om5vbmU7c3Ryb2tlLW9wYWNpdHk6MSIgZD0ibSA0MDk4LDQwMTAgaCAtMyBsIC00LDEgaCAtNCBsIC00LDEgLTMsMSAtNCwxIC00LDEgLTMsMSAtNCwyIC0zLDEgLTQsMiAtMywyIC0zLDMgLTMsMiAtMywyIC0zLDMgLTMsMyAtMiwzIC0zLDMgLTIsMyAtMiwzIC0yLDQgLTIsMyAtMiw0IC0xLDMgLTEsNCAtMSw0IC0xLDQgLTEsNCAtMSw0IHYgNCA0IDE4MjUgMSAxIDEgMiAxIDIgMiAyIDIgMiAzIDIgMyAyIDMgMyA2IDcgNiA3IDcgMTQiLz4mI3hhOyAgICAgICAgPHBhdGggaWQ9InBhdGg1MCIgc3R5bGU9ImZpbGw6bm9uZTtzdHJva2U6IzAwMDAwMDtzdHJva2Utd2lkdGg6MTc7c3Ryb2tlLWxpbmVjYXA6cm91bmQ7c3Ryb2tlLWxpbmVqb2luOnJvdW5kO3N0cm9rZS1taXRlcmxpbWl0OjEwO3N0cm9rZS1kYXNoYXJyYXk6bm9uZTtzdHJva2Utb3BhY2l0eToxIiBkPSJtIDkxNzksNTk5NCBoIC0yIC02IC0xMCAtMTQgLTE3IC0yMSAtMjUgLTI5IC0zMyAtMzYgLTQwIC00MyAtNDcgLTUxIC01NCAtNTcgLTYwIC02MyAtNjcgLTY5IC03MyAtNzUgLTc3IC04MSAtODIgLTg1IC04NyAtOTAgLTkxIC05MyAtOTQgLTk3IC05NyAtOTkgLTEwMCAtMTAxIC0xMDIgLTEwMyAtMTAzIC0xMDQgLTEwNCAtMTA0IC0xMDQgLTEwNCAtMTAzIC0xMDMgLTEwMyAtMTAyIC0xMDEgLTEwMCAtOTggLTk4IC05NiAtOTQgLTkzIC05MSAtODkgLTg3IC04NCAtODMgLTgwIC03NyAtNzUgLTcyIC02OSAtNjYgLTYzIC02MCAtMyAtNCAtNCBsIC00LC0xIC0zLC0xIC00LC0xIC00LC0xIC0zLC0xIC00LC0yIC0zLC0yIC00LC0xIC0zLC0yIC0zLC0zIC0zLC0yIC0zLC0zIC0zLC0yIC0zLC0zIC0yLC0zIC0zLC0zIC0yLC0zIC0yLC0zIC0yLC00IC0yLC0zIC0yLC00IC0xLC00IC0xLC0zIC0xLC00IC0xLC00IC0xLC00IC0xLC00IHYgLTQgLTQiLz4mI3hhOyAgICAgICAgPGcgdHJhbnNmb3JtPSJyb3RhdGUoMTc5LjMyNDQ3LDMxNTUuOTc5Myw1MjM4LjUzNzgpIiBpZD0iZzUyIj4mI3hhOyAgICAgICAgICA8cGF0aCBpZD0icGF0aDU0IiBzdHlsZT0iZmlsbDpub25lO3N0cm9rZTojMDAwMDAwO3N0cm9rZS13aWR0aDoxNztzdHJva2UtbGluZWNhcDpyb3VuZDtzdHJva2UtbGluZWpvaW46cm91bmQ7c3Ryb2tlLW1pdGVybGltaXQ6MTA7c3Ryb2tlLWRhc2hhcnJheTpub25lO3N0cm9rZS1vcGFjaXR5OjEiIGQ9Ik0gMjcuMTM5NzYsLTIzMDEuMzQwMSBDIDEyODcuNTQ5MywtMjI4Ni40NzU4IDIzMDEuNSwtMTI2MC40OTcyIDIzMDEuNSwwIi8+JiN4YTsgICAgICAgIDwvZz4mI3hhOyAgICAgICAgPGcgdHJhbnNmb3JtPSJyb3RhdGUoMTgwLDMyMTMuNzUsNTIxOS43NSkiIGlkPSJnNTYiPiYjeGE7ICAgICAgICAgIDxwYXRoIGlkPSJwYXRoNTgiIHN0eWxlPSJmaWxsOm5vbmU7c3Ryb2tlOiMwMDAwMDA7c3Ryb2tlLXdpZHRoOjE3O3N0cm9rZS1saW5lY2FwOnJvdW5kO3N0cm9rZS1saW5lam9pbjpyb3VuZDtzdHJva2UtbWl0ZXJsaW1pdDoxMDtzdHJva2UtZGFzaGFycmF5Om5vbmU7c3Ryb2tlLW9wYWNpdHk6MSIgZD0iTSAtMjMwMS4zNDAxLC0yNy4xMzk3NiBDIC0yMjg2LjQ3NTgsLTEyODcuNTQ5MyAtMTI2MC40OTcyLC0yMzAxLjUgMCwtMjMwMS41Ii8+JiN4YTsgICAgICAgIDwvZz4mI3hhOyAgICAgICAgPHBhdGggaWQ9InBhdGg2MCIgc3R5bGU9ImZpbGw6bm9uZTtzdHJva2U6IzAwMDAwMDtzdHJva2Utd2lkdGg6MTc7c3Ryb2tlLWxpbmVjYXA6cm91bmQ7c3Ryb2tlLWxpbmVqb2luOnJvdW5kO3N0cm9rZS1taXRlcmxpbWl0OjEwO3N0cm9rZS1kYXNoYXJyYXk6bm9uZTtzdHJva2Utb3BhY2l0eToxIiBkPSJtIDg3MjksMTA0NjYgNTMsLTQ0NzIiLz4mI3hhOyAgICAgICAgPHBhdGggaWQ9InBhdGg2MiIgc3R5bGU9ImZpbGw6bm9uZTtzdHJva2U6IzAwMDAwMDtzdHJva2Utd2lkdGg6MTc7c3Ryb2tlLWxpbmVjYXA6cm91bmQ7c3Ryb2tlLWxpbmVqb2luOnJvdW5kO3N0cm9rZS1taXRlcmxpbWl0OjEwO3N0cm9rZS1kYXNoYXJyYXk6bm9uZTtzdHJva2Utb3BhY2l0eToxIiBkPSJNIDQwNzIsMTA0NjYgNDAxOSw1OTk1Ii8+JiN4YTsgICAgICAgIDxwYXRoIGlkPSJwYXRoNjQiIHN0eWxlPSJmaWxsOm5vbmU7c3Ryb2tlOiMwMDAwMDA7c3Ryb2tlLXdpZHRoOjE3O3N0cm9rZS1saW5lY2FwOnJvdW5kO3N0cm9rZS1saW5lam9pbjpyb3VuZDtzdHJva2UtbWl0ZXJsaW1pdDoxMDtzdHJva2UtZGFzaGFycmF5Om5vbmU7c3Ryb2tlLW9wYWNpdHk6MSIgZD0ibSA5MTc5LjUsNDAxMSBjIDQzLjkwNjMsMCA3OS41LDM1LjU5MzMgNzkuNSw3OS41Ii8+JiN4YTsgICAgICAgIDxnIHRyYW5zZm9ybT0icm90YXRlKDE4MCw0NTg5Ljc1LDI5NTcuNzUpIiBpZD0iZzY2Ij4mI3hhOyAgICAgICAgICA8cGF0aCBpZD0icGF0aDY4IiBzdHlsZT0iZmlsbDpub25lO3N0cm9rZTojMDAwMDAwO3N0cm9rZS13aWR0aDoxNztzdHJva2UtbGluZWNhcDpyb3VuZDtzdHJva2UtbGluZWpvaW46cm91bmQ7c3Ryb2tlLW1pdGVybGltaXQ6MTA7c3Ryb2tlLWRhc2hhcnJheTpub25lO3N0cm9rZS1vcGFjaXR5OjEiIGQ9Im0gLTc5LjUsMCBjIDAsLTQzLjkwNjY0IDM1LjU5MzM2LC03OS41IDc5LjUsLTc5LjUiLz4mI3hhOyAgICAgICAgPC9nPiYjeGE7ICAgICAgICA8cGF0aCBpZD0icGF0aDcwIiBzdHlsZT0iZmlsbDpub25lO3N0cm9rZTojMDAwMDAwO3N0cm9rZS13aWR0aDoxNztzdHJva2UtbGluZWNhcDpyb3VuZDtzdHJva2UtbGluZWpvaW46cm91bmQ7c3Ryb2tlLW1pdGVybGltaXQ6MTA7c3Ryb2tlLWRhc2hhcnJheTpub25lO3N0cm9rZS1vcGFjaXR5OjEiIGQ9Im0gNDAxOSw1OTE1IHYgMSAxIDEgMiAxIDIgMiAyIDIgMiAzIDIgMyAyIDMgMyA2IDcgNiA3IDcgMTQiLz4mI3hhOyAgICAgICAgPHBhdGggaWQ9InBhdGg3MiIgc3R5bGU9ImZpbGw6bm9uZTtzdHJva2U6IzAwMDAwMDtzdHJva2Utd2lkdGg6MTc7c3Ryb2tlLWxpbmVjYXA6cm91bmQ7c3Ryb2tlLWxpbmVqb2luOnJvdW5kO3N0cm9rZS1taXRlcmxpbWl0OjEwO3N0cm9rZS1kYXNoYXJyYXk6bm9uZTtzdHJva2Utb3BhY2l0eToxIiBkPSJNIDkyNTgsNDA5MCBWIDU5MTUiLz4mI3hhOyAgICAgIDwvZz4mI3hhOyAgICA8L2c+JiN4YTsgIDwvZz4mI3hhOzwvc3ZnPg==;flipV=0;flipH=0;" parent="1" vertex="1">
          <mxGeometry x="436.98850000000004" y="251.96849999999995" width="70.93" height="70.93" as="geometry" />
        </mxCell>
        <mxCell id="rriGDJWvNKK0h5WxVhIS-3" value="" style="shape=image;verticalLabelPosition=bottom;verticalAlign=top;imageAspect=0;aspect=fixed;image=data:image/svg+xml,PHN2ZyB4bWxucz0iaHR0cDovL3d3dy53My5vcmcvMjAwMC9zdmciIHZpZXdCb3g9IjAgMCAxMDI0IDEwMjQiIGhlaWdodD0iMTAyNCIgd2lkdGg9IjEwMjQiIGlkPSJzdmcyIiB2ZXJzaW9uPSIxLjEiPiYjeGE7ICA8ZGVmcyBpZD0iZGVmczYiPiYjeGE7ICAgIDxjbGlwUGF0aCBpZD0iY2xpcFBhdGgxNiIgY2xpcFBhdGhVbml0cz0idXNlclNwYWNlT25Vc2UiPiYjeGE7ICAgICAgPHBhdGggaWQ9InBhdGgxNCIgZD0iTSAzODY3LDAgSCA5NDEwIFYgMTI3OTkgSCAzODY3IFYgMCIvPiYjeGE7ICAgIDwvY2xpcFBhdGg+JiN4YTsgIDwvZGVmcz4mI3hhOyAgPGcgdHJhbnNmb3JtPSJtYXRyaXgoMC4wOCwwLDAsLTAuMDgsMCwxMDI0KSIgaWQ9Imc4Ij4mI3hhOyAgICA8ZyBpZD0iZzEwIj4mI3hhOyAgICAgIDxnIGNsaXAtcGF0aD0idXJsKCNjbGlwUGF0aDE2KSIgaWQ9ImcxMiI+JiN4YTsgICAgICAgIDxwYXRoIGlkPSJwYXRoMTgiIHN0eWxlPSJmaWxsOm5vbmU7c3Ryb2tlOiMwMDAwMDA7c3Ryb2tlLXdpZHRoOjE3O3N0cm9rZS1saW5lY2FwOnJvdW5kO3N0cm9rZS1saW5lam9pbjpyb3VuZDtzdHJva2UtbWl0ZXJsaW1pdDoxMDtzdHJva2UtZGFzaGFycmF5Om5vbmU7c3Ryb2tlLW9wYWNpdHk6MSIgZD0iTSA4NjIzLDIwMSBWIDQwMTAiLz4mI3hhOyAgICAgICAgPHBhdGggaWQ9InBhdGgyMCIgc3R5bGU9ImZpbGw6bm9uZTtzdHJva2U6IzAwMDAwMDtzdHJva2Utd2lkdGg6MTc7c3Ryb2tlLWxpbmVjYXA6cm91bmQ7c3Ryb2tlLWxpbmVqb2luOnJvdW5kO3N0cm9rZS1taXRlcmxpbWl0OjEwO3N0cm9rZS1kYXNoYXJyYXk6bm9uZTtzdHJva2Utb3BhY2l0eToxIiBkPSJNIDUyODksMjAxIFYgNDAxMCIvPiYjeGE7ICAgICAgICA8cGF0aCBpZD0icGF0aDIyIiBzdHlsZT0iZmlsbDpub25lO3N0cm9rZTojMDAwMDAwO3N0cm9rZS13aWR0aDoxNztzdHJva2UtbGluZWNhcDpyb3VuZDtzdHJva2UtbGluZWpvaW46cm91bmQ7c3Ryb2tlLW1pdGVybGltaXQ6MTA7c3Ryb2tlLWRhc2hhcnJheTpub25lO3N0cm9rZS1vcGFjaXR5OjEiIGQ9Im0gODQ2NC41LDQzIGMgODcuNTM3MSwwIDE1OC41LDcwLjk2Mjg2IDE1OC41LDE1OC41Ii8+JiN4YTsgICAgICAgIDxnIHRyYW5zZm9ybT0icm90YXRlKDE4MCwzOTk0LjI1LDEwMC43NSkiIGlkPSJnMjQiPiYjeGE7ICAgICAgICAgIDxwYXRoIGlkPSJwYXRoMjYiIHN0eWxlPSJmaWxsOm5vbmU7c3Ryb2tlOiMwMDAwMDA7c3Ryb2tlLXdpZHRoOjE3O3N0cm9rZS1saW5lY2FwOnJvdW5kO3N0cm9rZS1saW5lam9pbjpyb3VuZDtzdHJva2UtbWl0ZXJsaW1pdDoxMDtzdHJva2UtZGFzaGFycmF5Om5vbmU7c3Ryb2tlLW9wYWNpdHk6MSIgZD0iTSAxNTguNSwwIEMgMTU4LjUsODcuNTM3MTQgODcuNTM3MTQsMTU4LjUgMCwxNTguNSIvPiYjeGE7ICAgICAgICA8L2c+JiN4YTsgICAgICAgIDxwYXRoIGlkPSJwYXRoMjgiIHN0eWxlPSJmaWxsOm5vbmU7c3Ryb2tlOiMwMDAwMDA7c3Ryb2tlLXdpZHRoOjE3O3N0cm9rZS1saW5lY2FwOnJvdW5kO3N0cm9rZS1saW5lam9pbjpyb3VuZDtzdHJva2UtbWl0ZXJsaW1pdDoxMDtzdHJva2UtZGFzaGFycmF5Om5vbmU7c3Ryb2tlLW9wYWNpdHk6MSIgZD0iTSA3ODI5LDQwMTAgViAyMDEiLz4mI3hhOyAgICAgICAgPHBhdGggaWQ9InBhdGgzMCIgc3R5bGU9ImZpbGw6bm9uZTtzdHJva2U6IzAwMDAwMDtzdHJva2Utd2lkdGg6MTc7c3Ryb2tlLWxpbmVjYXA6cm91bmQ7c3Ryb2tlLWxpbmVqb2luOnJvdW5kO3N0cm9rZS1taXRlcmxpbWl0OjEwO3N0cm9rZS1kYXNoYXJyYXk6bm9uZTtzdHJva2Utb3BhY2l0eToxIiBkPSJtIDc5ODgsNDIgaCA0NzYiLz4mI3hhOyAgICAgICAgPGcgdHJhbnNmb3JtPSJyb3RhdGUoMTgwLDIzMjcuMjUsMTAwLjc1KSIgaWQ9ImczMiI+JiN4YTsgICAgICAgICAgPHBhdGggaWQ9InBhdGgzNCIgc3R5bGU9ImZpbGw6bm9uZTtzdHJva2U6IzAwMDAwMDtzdHJva2Utd2lkdGg6MTc7c3Ryb2tlLWxpbmVjYXA6cm91bmQ7c3Ryb2tlLWxpbmVqb2luOnJvdW5kO3N0cm9rZS1taXRlcmxpbWl0OjEwO3N0cm9rZS1kYXNoYXJyYXk6bm9uZTtzdHJva2Utb3BhY2l0eToxIiBkPSJNIDE1OC41LDAgQyAxNTguNSw4Ny41MzcxNCA4Ny41MzcxNCwxNTguNSAwLDE1OC41Ii8+JiN4YTsgICAgICAgIDwvZz4mI3hhOyAgICAgICAgPHBhdGggaWQ9InBhdGgzNiIgc3R5bGU9ImZpbGw6bm9uZTtzdHJva2U6IzAwMDAwMDtzdHJva2Utd2lkdGg6MTc7c3Ryb2tlLWxpbmVjYXA6cm91bmQ7c3Ryb2tlLWxpbmVqb2luOnJvdW5kO3N0cm9rZS1taXRlcmxpbWl0OjEwO3N0cm9rZS1kYXNoYXJyYXk6bm9uZTtzdHJva2Utb3BhY2l0eToxIiBkPSJNIDQ0OTUsNDAxMCBWIDIwMSIvPiYjeGE7ICAgICAgICA8cGF0aCBpZD0icGF0aDM4IiBzdHlsZT0iZmlsbDpub25lO3N0cm9rZTojMDAwMDAwO3N0cm9rZS13aWR0aDoxNztzdHJva2UtbGluZWNhcDpyb3VuZDtzdHJva2UtbGluZWpvaW46cm91bmQ7c3Ryb2tlLW1pdGVybGltaXQ6MTA7c3Ryb2tlLWRhc2hhcnJheTpub25lO3N0cm9rZS1vcGFjaXR5OjEiIGQ9Im0gNTEzMC41LDQzIGMgODcuNTM3MSwwIDE1OC41LDcwLjk2Mjg2IDE1OC41LDE1OC41Ii8+JiN4YTsgICAgICAgIDxwYXRoIGlkPSJwYXRoNDAiIHN0eWxlPSJmaWxsOm5vbmU7c3Ryb2tlOiMwMDAwMDA7c3Ryb2tlLXdpZHRoOjE3O3N0cm9rZS1saW5lY2FwOnJvdW5kO3N0cm9rZS1saW5lam9pbjpyb3VuZDtzdHJva2UtbWl0ZXJsaW1pdDoxMDtzdHJva2UtZGFzaGFycmF5Om5vbmU7c3Ryb2tlLW9wYWNpdHk6MSIgZD0ibSA0NjU0LDQyIGggNDc2Ii8+JiN4YTsgICAgICAgIDxwYXRoIGlkPSJwYXRoNDIiIHN0eWxlPSJmaWxsOm5vbmU7c3Ryb2tlOiMwMDAwMDA7c3Ryb2tlLXdpZHRoOjE3O3N0cm9rZS1saW5lY2FwOnJvdW5kO3N0cm9rZS1saW5lam9pbjpyb3VuZDtzdHJva2UtbWl0ZXJsaW1pdDoxMDtzdHJva2UtZGFzaGFycmF5Om5vbmU7c3Ryb2tlLW9wYWNpdHk6MSIgZD0ibSA0MDk4LDQwMTAgaCA2MCA2MyA2NiA2OSA3MiA3NSA3NyA4MCA4MyA4NCA4NyA4OSA5MSA5MyA5NCA5NiA5OCA5OCAxMDAgMTAxIDEwMiAxMDMgMTAzIDEwMyAxMDQgMTA0IDEwNCAxMDQgMTA0IDEwMyAxMDMgMTAyIDEwMSAxMDAgOTkgOTcgOTcgOTQgOTMgOTEgOTAgODcgODUgODIgODEgNzcgNzUgNzMgNjkgNjcgNjMgNjAgNTcgNTQgNTEgNDcgNDMgNDAgMzYgMzMgMjkgMjUgMjEgMTcgMTQgMTAgNiAyIi8+JiN4YTsgICAgICAgIDxwYXRoIGlkPSJwYXRoNDQiIHN0eWxlPSJmaWxsOm5vbmU7c3Ryb2tlOiMwMDAwMDA7c3Ryb2tlLXdpZHRoOjE3O3N0cm9rZS1saW5lY2FwOnJvdW5kO3N0cm9rZS1saW5lam9pbjpyb3VuZDtzdHJva2UtbWl0ZXJsaW1pdDoxMDtzdHJva2UtZGFzaGFycmF5Om5vbmU7c3Ryb2tlLW9wYWNpdHk6MSIgZD0ibSA2NDI3LDEyNzQxIGggLTIgLTYgLTggLTExIC0xMCAtOSAtNiAtMiIvPiYjeGE7ICAgICAgICA8cGF0aCBpZD0icGF0aDQ2IiBzdHlsZT0iZmlsbDpub25lO3N0cm9rZTojMDAwMDAwO3N0cm9rZS13aWR0aDoxNztzdHJva2UtbGluZWNhcDpyb3VuZDtzdHJva2UtbGluZWpvaW46cm91bmQ7c3Ryb2tlLW1pdGVybGltaXQ6MTA7c3Ryb2tlLWRhc2hhcnJheTpub25lO3N0cm9rZS1vcGFjaXR5OjEiIGQ9Im0gNDAxOSw1OTk0IGggMiA3IDExIDE2IDE5IDI0Ii8+JiN4YTsgICAgICAgIDxwYXRoIGlkPSJwYXRoNDgiIHN0eWxlPSJmaWxsOm5vbmU7c3Ryb2tlOiMwMDAwMDA7c3Ryb2tlLXdpZHRoOjE3O3N0cm9rZS1saW5lY2FwOnJvdW5kO3N0cm9rZS1saW5lam9pbjpyb3VuZDtzdHJva2UtbWl0ZXJsaW1pdDoxMDtzdHJva2UtZGFzaGFycmF5Om5vbmU7c3Ryb2tlLW9wYWNpdHk6MSIgZD0ibSA0MDk4LDQwMTAgaCAtMyBsIC00LDEgaCAtNCBsIC00LDEgLTMsMSAtNCwxIC00LDEgLTMsMSAtNCwyIC0zLDEgLTQsMiAtMywyIC0zLDMgLTMsMiAtMywyIC0zLDMgLTMsMyAtMiwzIC0zLDMgLTIsMyAtMiwzIC0yLDQgLTIsMyAtMiw0IC0xLDMgLTEsNCAtMSw0IC0xLDQgLTEsNCAtMSw0IHYgNCA0IDE4MjUgMSAxIDEgMiAxIDIgMiAyIDIgMiAzIDIgMyAyIDMgMyA2IDcgNiA3IDcgMTQiLz4mI3hhOyAgICAgICAgPHBhdGggaWQ9InBhdGg1MCIgc3R5bGU9ImZpbGw6bm9uZTtzdHJva2U6IzAwMDAwMDtzdHJva2Utd2lkdGg6MTc7c3Ryb2tlLWxpbmVjYXA6cm91bmQ7c3Ryb2tlLWxpbmVqb2luOnJvdW5kO3N0cm9rZS1taXRlcmxpbWl0OjEwO3N0cm9rZS1kYXNoYXJyYXk6bm9uZTtzdHJva2Utb3BhY2l0eToxIiBkPSJtIDkxNzksNTk5NCBoIC0yIC02IC0xMCAtMTQgLTE3IC0yMSAtMjUgLTI5IC0zMyAtMzYgLTQwIC00MyAtNDcgLTUxIC01NCAtNTcgLTYwIC02MyAtNjcgLTY5IC03MyAtNzUgLTc3IC04MSAtODIgLTg1IC04NyAtOTAgLTkxIC05MyAtOTQgLTk3IC05NyAtOTkgLTEwMCAtMTAxIC0xMDIgLTEwMyAtMTAzIC0xMDQgLTEwNCAtMTA0IC0xMDQgLTEwNCAtMTAzIC0xMDMgLTEwMyAtMTAyIC0xMDEgLTEwMCAtOTggLTk4IC05NiAtOTQgLTkzIC05MSAtODkgLTg3IC04NCAtODMgLTgwIC03NyAtNzUgLTcyIC02OSAtNjYgLTYzIC02MCAtMyAtNCAtNCBsIC00LC0xIC0zLC0xIC00LC0xIC00LC0xIC0zLC0xIC00LC0yIC0zLC0yIC00LC0xIC0zLC0yIC0zLC0zIC0zLC0yIC0zLC0zIC0zLC0yIC0zLC0zIC0yLC0zIC0zLC0zIC0yLC0zIC0yLC0zIC0yLC00IC0yLC0zIC0yLC00IC0xLC00IC0xLC0zIC0xLC00IC0xLC00IC0xLC00IC0xLC00IHYgLTQgLTQiLz4mI3hhOyAgICAgICAgPGcgdHJhbnNmb3JtPSJyb3RhdGUoMTc5LjMyNDQ3LDMxNTUuOTc5Myw1MjM4LjUzNzgpIiBpZD0iZzUyIj4mI3hhOyAgICAgICAgICA8cGF0aCBpZD0icGF0aDU0IiBzdHlsZT0iZmlsbDpub25lO3N0cm9rZTojMDAwMDAwO3N0cm9rZS13aWR0aDoxNztzdHJva2UtbGluZWNhcDpyb3VuZDtzdHJva2UtbGluZWpvaW46cm91bmQ7c3Ryb2tlLW1pdGVybGltaXQ6MTA7c3Ryb2tlLWRhc2hhcnJheTpub25lO3N0cm9rZS1vcGFjaXR5OjEiIGQ9Ik0gMjcuMTM5NzYsLTIzMDEuMzQwMSBDIDEyODcuNTQ5MywtMjI4Ni40NzU4IDIzMDEuNSwtMTI2MC40OTcyIDIzMDEuNSwwIi8+JiN4YTsgICAgICAgIDwvZz4mI3hhOyAgICAgICAgPGcgdHJhbnNmb3JtPSJyb3RhdGUoMTgwLDMyMTMuNzUsNTIxOS43NSkiIGlkPSJnNTYiPiYjeGE7ICAgICAgICAgIDxwYXRoIGlkPSJwYXRoNTgiIHN0eWxlPSJmaWxsOm5vbmU7c3Ryb2tlOiMwMDAwMDA7c3Ryb2tlLXdpZHRoOjE3O3N0cm9rZS1saW5lY2FwOnJvdW5kO3N0cm9rZS1saW5lam9pbjpyb3VuZDtzdHJva2UtbWl0ZXJsaW1pdDoxMDtzdHJva2UtZGFzaGFycmF5Om5vbmU7c3Ryb2tlLW9wYWNpdHk6MSIgZD0iTSAtMjMwMS4zNDAxLC0yNy4xMzk3NiBDIC0yMjg2LjQ3NTgsLTEyODcuNTQ5MyAtMTI2MC40OTcyLC0yMzAxLjUgMCwtMjMwMS41Ii8+JiN4YTsgICAgICAgIDwvZz4mI3hhOyAgICAgICAgPHBhdGggaWQ9InBhdGg2MCIgc3R5bGU9ImZpbGw6bm9uZTtzdHJva2U6IzAwMDAwMDtzdHJva2Utd2lkdGg6MTc7c3Ryb2tlLWxpbmVjYXA6cm91bmQ7c3Ryb2tlLWxpbmVqb2luOnJvdW5kO3N0cm9rZS1taXRlcmxpbWl0OjEwO3N0cm9rZS1kYXNoYXJyYXk6bm9uZTtzdHJva2Utb3BhY2l0eToxIiBkPSJtIDg3MjksMTA0NjYgNTMsLTQ0NzIiLz4mI3hhOyAgICAgICAgPHBhdGggaWQ9InBhdGg2MiIgc3R5bGU9ImZpbGw6bm9uZTtzdHJva2U6IzAwMDAwMDtzdHJva2Utd2lkdGg6MTc7c3Ryb2tlLWxpbmVjYXA6cm91bmQ7c3Ryb2tlLWxpbmVqb2luOnJvdW5kO3N0cm9rZS1taXRlcmxpbWl0OjEwO3N0cm9rZS1kYXNoYXJyYXk6bm9uZTtzdHJva2Utb3BhY2l0eToxIiBkPSJNIDQwNzIsMTA0NjYgNDAxOSw1OTk1Ii8+JiN4YTsgICAgICAgIDxwYXRoIGlkPSJwYXRoNjQiIHN0eWxlPSJmaWxsOm5vbmU7c3Ryb2tlOiMwMDAwMDA7c3Ryb2tlLXdpZHRoOjE3O3N0cm9rZS1saW5lY2FwOnJvdW5kO3N0cm9rZS1saW5lam9pbjpyb3VuZDtzdHJva2UtbWl0ZXJsaW1pdDoxMDtzdHJva2UtZGFzaGFycmF5Om5vbmU7c3Ryb2tlLW9wYWNpdHk6MSIgZD0ibSA5MTc5LjUsNDAxMSBjIDQzLjkwNjMsMCA3OS41LDM1LjU5MzMgNzkuNSw3OS41Ii8+JiN4YTsgICAgICAgIDxnIHRyYW5zZm9ybT0icm90YXRlKDE4MCw0NTg5Ljc1LDI5NTcuNzUpIiBpZD0iZzY2Ij4mI3hhOyAgICAgICAgICA8cGF0aCBpZD0icGF0aDY4IiBzdHlsZT0iZmlsbDpub25lO3N0cm9rZTojMDAwMDAwO3N0cm9rZS13aWR0aDoxNztzdHJva2UtbGluZWNhcDpyb3VuZDtzdHJva2UtbGluZWpvaW46cm91bmQ7c3Ryb2tlLW1pdGVybGltaXQ6MTA7c3Ryb2tlLWRhc2hhcnJheTpub25lO3N0cm9rZS1vcGFjaXR5OjEiIGQ9Im0gLTc5LjUsMCBjIDAsLTQzLjkwNjY0IDM1LjU5MzM2LC03OS41IDc5LjUsLTc5LjUiLz4mI3hhOyAgICAgICAgPC9nPiYjeGE7ICAgICAgICA8cGF0aCBpZD0icGF0aDcwIiBzdHlsZT0iZmlsbDpub25lO3N0cm9rZTojMDAwMDAwO3N0cm9rZS13aWR0aDoxNztzdHJva2UtbGluZWNhcDpyb3VuZDtzdHJva2UtbGluZWpvaW46cm91bmQ7c3Ryb2tlLW1pdGVybGltaXQ6MTA7c3Ryb2tlLWRhc2hhcnJheTpub25lO3N0cm9rZS1vcGFjaXR5OjEiIGQ9Im0gNDAxOSw1OTE1IHYgMSAxIDEgMiAxIDIgMiAyIDIgMiAzIDIgMyAyIDMgMyA2IDcgNiA3IDcgMTQiLz4mI3hhOyAgICAgICAgPHBhdGggaWQ9InBhdGg3MiIgc3R5bGU9ImZpbGw6bm9uZTtzdHJva2U6IzAwMDAwMDtzdHJva2Utd2lkdGg6MTc7c3Ryb2tlLWxpbmVjYXA6cm91bmQ7c3Ryb2tlLWxpbmVqb2luOnJvdW5kO3N0cm9rZS1taXRlcmxpbWl0OjEwO3N0cm9rZS1kYXNoYXJyYXk6bm9uZTtzdHJva2Utb3BhY2l0eToxIiBkPSJNIDkyNTgsNDA5MCBWIDU5MTUiLz4mI3hhOyAgICAgIDwvZz4mI3hhOyAgICA8L2c+JiN4YTsgIDwvZz4mI3hhOzwvc3ZnPg==;flipV=1;flipH=1;" parent="1" vertex="1">
          <mxGeometry x="318.997" y="659.4485000000001" width="70.93" height="70.93" as="geometry" />
        </mxCell>
        <mxCell id="rriGDJWvNKK0h5WxVhIS-4" value="" style="shape=image;verticalLabelPosition=bottom;verticalAlign=top;imageAspect=0;aspect=fixed;image=data:image/svg+xml,PHN2ZyB4bWxucz0iaHR0cDovL3d3dy53My5vcmcvMjAwMC9zdmciIHZpZXdCb3g9IjAgMCAxMDI0IDEwMjQiIGhlaWdodD0iMTAyNCIgd2lkdGg9IjEwMjQiIGlkPSJzdmcyIiB2ZXJzaW9uPSIxLjEiPiYjeGE7ICA8ZGVmcyBpZD0iZGVmczYiPiYjeGE7ICAgIDxjbGlwUGF0aCBpZD0iY2xpcFBhdGgxNiIgY2xpcFBhdGhVbml0cz0idXNlclNwYWNlT25Vc2UiPiYjeGE7ICAgICAgPHBhdGggaWQ9InBhdGgxNCIgZD0iTSAzODY3LDAgSCA5NDEwIFYgMTI3OTkgSCAzODY3IFYgMCIvPiYjeGE7ICAgIDwvY2xpcFBhdGg+JiN4YTsgIDwvZGVmcz4mI3hhOyAgPGcgdHJhbnNmb3JtPSJtYXRyaXgoMC4wOCwwLDAsLTAuMDgsMCwxMDI0KSIgaWQ9Imc4Ij4mI3hhOyAgICA8ZyBpZD0iZzEwIj4mI3hhOyAgICAgIDxnIGNsaXAtcGF0aD0idXJsKCNjbGlwUGF0aDE2KSIgaWQ9ImcxMiI+JiN4YTsgICAgICAgIDxwYXRoIGlkPSJwYXRoMTgiIHN0eWxlPSJmaWxsOm5vbmU7c3Ryb2tlOiMwMDAwMDA7c3Ryb2tlLXdpZHRoOjE3O3N0cm9rZS1saW5lY2FwOnJvdW5kO3N0cm9rZS1saW5lam9pbjpyb3VuZDtzdHJva2UtbWl0ZXJsaW1pdDoxMDtzdHJva2UtZGFzaGFycmF5Om5vbmU7c3Ryb2tlLW9wYWNpdHk6MSIgZD0iTSA4NjIzLDIwMSBWIDQwMTAiLz4mI3hhOyAgICAgICAgPHBhdGggaWQ9InBhdGgyMCIgc3R5bGU9ImZpbGw6bm9uZTtzdHJva2U6IzAwMDAwMDtzdHJva2Utd2lkdGg6MTc7c3Ryb2tlLWxpbmVjYXA6cm91bmQ7c3Ryb2tlLWxpbmVqb2luOnJvdW5kO3N0cm9rZS1taXRlcmxpbWl0OjEwO3N0cm9rZS1kYXNoYXJyYXk6bm9uZTtzdHJva2Utb3BhY2l0eToxIiBkPSJNIDUyODksMjAxIFYgNDAxMCIvPiYjeGE7ICAgICAgICA8cGF0aCBpZD0icGF0aDIyIiBzdHlsZT0iZmlsbDpub25lO3N0cm9rZTojMDAwMDAwO3N0cm9rZS13aWR0aDoxNztzdHJva2UtbGluZWNhcDpyb3VuZDtzdHJva2UtbGluZWpvaW46cm91bmQ7c3Ryb2tlLW1pdGVybGltaXQ6MTA7c3Ryb2tlLWRhc2hhcnJheTpub25lO3N0cm9rZS1vcGFjaXR5OjEiIGQ9Im0gODQ2NC41LDQzIGMgODcuNTM3MSwwIDE1OC41LDcwLjk2Mjg2IDE1OC41LDE1OC41Ii8+JiN4YTsgICAgICAgIDxnIHRyYW5zZm9ybT0icm90YXRlKDE4MCwzOTk0LjI1LDEwMC43NSkiIGlkPSJnMjQiPiYjeGE7ICAgICAgICAgIDxwYXRoIGlkPSJwYXRoMjYiIHN0eWxlPSJmaWxsOm5vbmU7c3Ryb2tlOiMwMDAwMDA7c3Ryb2tlLXdpZHRoOjE3O3N0cm9rZS1saW5lY2FwOnJvdW5kO3N0cm9rZS1saW5lam9pbjpyb3VuZDtzdHJva2UtbWl0ZXJsaW1pdDoxMDtzdHJva2UtZGFzaGFycmF5Om5vbmU7c3Ryb2tlLW9wYWNpdHk6MSIgZD0iTSAxNTguNSwwIEMgMTU4LjUsODcuNTM3MTQgODcuNTM3MTQsMTU4LjUgMCwxNTguNSIvPiYjeGE7ICAgICAgICA8L2c+JiN4YTsgICAgICAgIDxwYXRoIGlkPSJwYXRoMjgiIHN0eWxlPSJmaWxsOm5vbmU7c3Ryb2tlOiMwMDAwMDA7c3Ryb2tlLXdpZHRoOjE3O3N0cm9rZS1saW5lY2FwOnJvdW5kO3N0cm9rZS1saW5lam9pbjpyb3VuZDtzdHJva2UtbWl0ZXJsaW1pdDoxMDtzdHJva2UtZGFzaGFycmF5Om5vbmU7c3Ryb2tlLW9wYWNpdHk6MSIgZD0iTSA3ODI5LDQwMTAgViAyMDEiLz4mI3hhOyAgICAgICAgPHBhdGggaWQ9InBhdGgzMCIgc3R5bGU9ImZpbGw6bm9uZTtzdHJva2U6IzAwMDAwMDtzdHJva2Utd2lkdGg6MTc7c3Ryb2tlLWxpbmVjYXA6cm91bmQ7c3Ryb2tlLWxpbmVqb2luOnJvdW5kO3N0cm9rZS1taXRlcmxpbWl0OjEwO3N0cm9rZS1kYXNoYXJyYXk6bm9uZTtzdHJva2Utb3BhY2l0eToxIiBkPSJtIDc5ODgsNDIgaCA0NzYiLz4mI3hhOyAgICAgICAgPGcgdHJhbnNmb3JtPSJyb3RhdGUoMTgwLDIzMjcuMjUsMTAwLjc1KSIgaWQ9ImczMiI+JiN4YTsgICAgICAgICAgPHBhdGggaWQ9InBhdGgzNCIgc3R5bGU9ImZpbGw6bm9uZTtzdHJva2U6IzAwMDAwMDtzdHJva2Utd2lkdGg6MTc7c3Ryb2tlLWxpbmVjYXA6cm91bmQ7c3Ryb2tlLWxpbmVqb2luOnJvdW5kO3N0cm9rZS1taXRlcmxpbWl0OjEwO3N0cm9rZS1kYXNoYXJyYXk6bm9uZTtzdHJva2Utb3BhY2l0eToxIiBkPSJNIDE1OC41LDAgQyAxNTguNSw4Ny41MzcxNCA4Ny41MzcxNCwxNTguNSAwLDE1OC41Ii8+JiN4YTsgICAgICAgIDwvZz4mI3hhOyAgICAgICAgPHBhdGggaWQ9InBhdGgzNiIgc3R5bGU9ImZpbGw6bm9uZTtzdHJva2U6IzAwMDAwMDtzdHJva2Utd2lkdGg6MTc7c3Ryb2tlLWxpbmVjYXA6cm91bmQ7c3Ryb2tlLWxpbmVqb2luOnJvdW5kO3N0cm9rZS1taXRlcmxpbWl0OjEwO3N0cm9rZS1kYXNoYXJyYXk6bm9uZTtzdHJva2Utb3BhY2l0eToxIiBkPSJNIDQ0OTUsNDAxMCBWIDIwMSIvPiYjeGE7ICAgICAgICA8cGF0aCBpZD0icGF0aDM4IiBzdHlsZT0iZmlsbDpub25lO3N0cm9rZTojMDAwMDAwO3N0cm9rZS13aWR0aDoxNztzdHJva2UtbGluZWNhcDpyb3VuZDtzdHJva2UtbGluZWpvaW46cm91bmQ7c3Ryb2tlLW1pdGVybGltaXQ6MTA7c3Ryb2tlLWRhc2hhcnJheTpub25lO3N0cm9rZS1vcGFjaXR5OjEiIGQ9Im0gNTEzMC41LDQzIGMgODcuNTM3MSwwIDE1OC41LDcwLjk2Mjg2IDE1OC41LDE1OC41Ii8+JiN4YTsgICAgICAgIDxwYXRoIGlkPSJwYXRoNDAiIHN0eWxlPSJmaWxsOm5vbmU7c3Ryb2tlOiMwMDAwMDA7c3Ryb2tlLXdpZHRoOjE3O3N0cm9rZS1saW5lY2FwOnJvdW5kO3N0cm9rZS1saW5lam9pbjpyb3VuZDtzdHJva2UtbWl0ZXJsaW1pdDoxMDtzdHJva2UtZGFzaGFycmF5Om5vbmU7c3Ryb2tlLW9wYWNpdHk6MSIgZD0ibSA0NjU0LDQyIGggNDc2Ii8+JiN4YTsgICAgICAgIDxwYXRoIGlkPSJwYXRoNDIiIHN0eWxlPSJmaWxsOm5vbmU7c3Ryb2tlOiMwMDAwMDA7c3Ryb2tlLXdpZHRoOjE3O3N0cm9rZS1saW5lY2FwOnJvdW5kO3N0cm9rZS1saW5lam9pbjpyb3VuZDtzdHJva2UtbWl0ZXJsaW1pdDoxMDtzdHJva2UtZGFzaGFycmF5Om5vbmU7c3Ryb2tlLW9wYWNpdHk6MSIgZD0ibSA0MDk4LDQwMTAgaCA2MCA2MyA2NiA2OSA3MiA3NSA3NyA4MCA4MyA4NCA4NyA4OSA5MSA5MyA5NCA5NiA5OCA5OCAxMDAgMTAxIDEwMiAxMDMgMTAzIDEwMyAxMDQgMTA0IDEwNCAxMDQgMTA0IDEwMyAxMDMgMTAyIDEwMSAxMDAgOTkgOTcgOTcgOTQgOTMgOTEgOTAgODcgODUgODIgODEgNzcgNzUgNzMgNjkgNjcgNjMgNjAgNTcgNTQgNTEgNDcgNDMgNDAgMzYgMzMgMjkgMjUgMjEgMTcgMTQgMTAgNiAyIi8+JiN4YTsgICAgICAgIDxwYXRoIGlkPSJwYXRoNDQiIHN0eWxlPSJmaWxsOm5vbmU7c3Ryb2tlOiMwMDAwMDA7c3Ryb2tlLXdpZHRoOjE3O3N0cm9rZS1saW5lY2FwOnJvdW5kO3N0cm9rZS1saW5lam9pbjpyb3VuZDtzdHJva2UtbWl0ZXJsaW1pdDoxMDtzdHJva2UtZGFzaGFycmF5Om5vbmU7c3Ryb2tlLW9wYWNpdHk6MSIgZD0ibSA2NDI3LDEyNzQxIGggLTIgLTYgLTggLTExIC0xMCAtOSAtNiAtMiIvPiYjeGE7ICAgICAgICA8cGF0aCBpZD0icGF0aDQ2IiBzdHlsZT0iZmlsbDpub25lO3N0cm9rZTojMDAwMDAwO3N0cm9rZS13aWR0aDoxNztzdHJva2UtbGluZWNhcDpyb3VuZDtzdHJva2UtbGluZWpvaW46cm91bmQ7c3Ryb2tlLW1pdGVybGltaXQ6MTA7c3Ryb2tlLWRhc2hhcnJheTpub25lO3N0cm9rZS1vcGFjaXR5OjEiIGQ9Im0gNDAxOSw1OTk0IGggMiA3IDExIDE2IDE5IDI0Ii8+JiN4YTsgICAgICAgIDxwYXRoIGlkPSJwYXRoNDgiIHN0eWxlPSJmaWxsOm5vbmU7c3Ryb2tlOiMwMDAwMDA7c3Ryb2tlLXdpZHRoOjE3O3N0cm9rZS1saW5lY2FwOnJvdW5kO3N0cm9rZS1saW5lam9pbjpyb3VuZDtzdHJva2UtbWl0ZXJsaW1pdDoxMDtzdHJva2UtZGFzaGFycmF5Om5vbmU7c3Ryb2tlLW9wYWNpdHk6MSIgZD0ibSA0MDk4LDQwMTAgaCAtMyBsIC00LDEgaCAtNCBsIC00LDEgLTMsMSAtNCwxIC00LDEgLTMsMSAtNCwyIC0zLDEgLTQsMiAtMywyIC0zLDMgLTMsMiAtMywyIC0zLDMgLTMsMyAtMiwzIC0zLDMgLTIsMyAtMiwzIC0yLDQgLTIsMyAtMiw0IC0xLDMgLTEsNCAtMSw0IC0xLDQgLTEsNCAtMSw0IHYgNCA0IDE4MjUgMSAxIDEgMiAxIDIgMiAyIDIgMiAzIDIgMyAyIDMgMyA2IDcgNiA3IDcgMTQiLz4mI3hhOyAgICAgICAgPHBhdGggaWQ9InBhdGg1MCIgc3R5bGU9ImZpbGw6bm9uZTtzdHJva2U6IzAwMDAwMDtzdHJva2Utd2lkdGg6MTc7c3Ryb2tlLWxpbmVjYXA6cm91bmQ7c3Ryb2tlLWxpbmVqb2luOnJvdW5kO3N0cm9rZS1taXRlcmxpbWl0OjEwO3N0cm9rZS1kYXNoYXJyYXk6bm9uZTtzdHJva2Utb3BhY2l0eToxIiBkPSJtIDkxNzksNTk5NCBoIC0yIC02IC0xMCAtMTQgLTE3IC0yMSAtMjUgLTI5IC0zMyAtMzYgLTQwIC00MyAtNDcgLTUxIC01NCAtNTcgLTYwIC02MyAtNjcgLTY5IC03MyAtNzUgLTc3IC04MSAtODIgLTg1IC04NyAtOTAgLTkxIC05MyAtOTQgLTk3IC05NyAtOTkgLTEwMCAtMTAxIC0xMDIgLTEwMyAtMTAzIC0xMDQgLTEwNCAtMTA0IC0xMDQgLTEwNCAtMTAzIC0xMDMgLTEwMyAtMTAyIC0xMDEgLTEwMCAtOTggLTk4IC05NiAtOTQgLTkzIC05MSAtODkgLTg3IC04NCAtODMgLTgwIC03NyAtNzUgLTcyIC02OSAtNjYgLTYzIC02MCAtMyAtNCAtNCBsIC00LC0xIC0zLC0xIC00LC0xIC00LC0xIC0zLC0xIC00LC0yIC0zLC0yIC00LC0xIC0zLC0yIC0zLC0zIC0zLC0yIC0zLC0zIC0zLC0yIC0zLC0zIC0yLC0zIC0zLC0zIC0yLC0zIC0yLC0zIC0yLC00IC0yLC0zIC0yLC00IC0xLC00IC0xLC0zIC0xLC00IC0xLC00IC0xLC00IC0xLC00IHYgLTQgLTQiLz4mI3hhOyAgICAgICAgPGcgdHJhbnNmb3JtPSJyb3RhdGUoMTc5LjMyNDQ3LDMxNTUuOTc5Myw1MjM4LjUzNzgpIiBpZD0iZzUyIj4mI3hhOyAgICAgICAgICA8cGF0aCBpZD0icGF0aDU0IiBzdHlsZT0iZmlsbDpub25lO3N0cm9rZTojMDAwMDAwO3N0cm9rZS13aWR0aDoxNztzdHJva2UtbGluZWNhcDpyb3VuZDtzdHJva2UtbGluZWpvaW46cm91bmQ7c3Ryb2tlLW1pdGVybGltaXQ6MTA7c3Ryb2tlLWRhc2hhcnJheTpub25lO3N0cm9rZS1vcGFjaXR5OjEiIGQ9Ik0gMjcuMTM5NzYsLTIzMDEuMzQwMSBDIDEyODcuNTQ5MywtMjI4Ni40NzU4IDIzMDEuNSwtMTI2MC40OTcyIDIzMDEuNSwwIi8+JiN4YTsgICAgICAgIDwvZz4mI3hhOyAgICAgICAgPGcgdHJhbnNmb3JtPSJyb3RhdGUoMTgwLDMyMTMuNzUsNTIxOS43NSkiIGlkPSJnNTYiPiYjeGE7ICAgICAgICAgIDxwYXRoIGlkPSJwYXRoNTgiIHN0eWxlPSJmaWxsOm5vbmU7c3Ryb2tlOiMwMDAwMDA7c3Ryb2tlLXdpZHRoOjE3O3N0cm9rZS1saW5lY2FwOnJvdW5kO3N0cm9rZS1saW5lam9pbjpyb3VuZDtzdHJva2UtbWl0ZXJsaW1pdDoxMDtzdHJva2UtZGFzaGFycmF5Om5vbmU7c3Ryb2tlLW9wYWNpdHk6MSIgZD0iTSAtMjMwMS4zNDAxLC0yNy4xMzk3NiBDIC0yMjg2LjQ3NTgsLTEyODcuNTQ5MyAtMTI2MC40OTcyLC0yMzAxLjUgMCwtMjMwMS41Ii8+JiN4YTsgICAgICAgIDwvZz4mI3hhOyAgICAgICAgPHBhdGggaWQ9InBhdGg2MCIgc3R5bGU9ImZpbGw6bm9uZTtzdHJva2U6IzAwMDAwMDtzdHJva2Utd2lkdGg6MTc7c3Ryb2tlLWxpbmVjYXA6cm91bmQ7c3Ryb2tlLWxpbmVqb2luOnJvdW5kO3N0cm9rZS1taXRlcmxpbWl0OjEwO3N0cm9rZS1kYXNoYXJyYXk6bm9uZTtzdHJva2Utb3BhY2l0eToxIiBkPSJtIDg3MjksMTA0NjYgNTMsLTQ0NzIiLz4mI3hhOyAgICAgICAgPHBhdGggaWQ9InBhdGg2MiIgc3R5bGU9ImZpbGw6bm9uZTtzdHJva2U6IzAwMDAwMDtzdHJva2Utd2lkdGg6MTc7c3Ryb2tlLWxpbmVjYXA6cm91bmQ7c3Ryb2tlLWxpbmVqb2luOnJvdW5kO3N0cm9rZS1taXRlcmxpbWl0OjEwO3N0cm9rZS1kYXNoYXJyYXk6bm9uZTtzdHJva2Utb3BhY2l0eToxIiBkPSJNIDQwNzIsMTA0NjYgNDAxOSw1OTk1Ii8+JiN4YTsgICAgICAgIDxwYXRoIGlkPSJwYXRoNjQiIHN0eWxlPSJmaWxsOm5vbmU7c3Ryb2tlOiMwMDAwMDA7c3Ryb2tlLXdpZHRoOjE3O3N0cm9rZS1saW5lY2FwOnJvdW5kO3N0cm9rZS1saW5lam9pbjpyb3VuZDtzdHJva2UtbWl0ZXJsaW1pdDoxMDtzdHJva2UtZGFzaGFycmF5Om5vbmU7c3Ryb2tlLW9wYWNpdHk6MSIgZD0ibSA5MTc5LjUsNDAxMSBjIDQzLjkwNjMsMCA3OS41LDM1LjU5MzMgNzkuNSw3OS41Ii8+JiN4YTsgICAgICAgIDxnIHRyYW5zZm9ybT0icm90YXRlKDE4MCw0NTg5Ljc1LDI5NTcuNzUpIiBpZD0iZzY2Ij4mI3hhOyAgICAgICAgICA8cGF0aCBpZD0icGF0aDY4IiBzdHlsZT0iZmlsbDpub25lO3N0cm9rZTojMDAwMDAwO3N0cm9rZS13aWR0aDoxNztzdHJva2UtbGluZWNhcDpyb3VuZDtzdHJva2UtbGluZWpvaW46cm91bmQ7c3Ryb2tlLW1pdGVybGltaXQ6MTA7c3Ryb2tlLWRhc2hhcnJheTpub25lO3N0cm9rZS1vcGFjaXR5OjEiIGQ9Im0gLTc5LjUsMCBjIDAsLTQzLjkwNjY0IDM1LjU5MzM2LC03OS41IDc5LjUsLTc5LjUiLz4mI3hhOyAgICAgICAgPC9nPiYjeGE7ICAgICAgICA8cGF0aCBpZD0icGF0aDcwIiBzdHlsZT0iZmlsbDpub25lO3N0cm9rZTojMDAwMDAwO3N0cm9rZS13aWR0aDoxNztzdHJva2UtbGluZWNhcDpyb3VuZDtzdHJva2UtbGluZWpvaW46cm91bmQ7c3Ryb2tlLW1pdGVybGltaXQ6MTA7c3Ryb2tlLWRhc2hhcnJheTpub25lO3N0cm9rZS1vcGFjaXR5OjEiIGQ9Im0gNDAxOSw1OTE1IHYgMSAxIDEgMiAxIDIgMiAyIDIgMiAzIDIgMyAyIDMgMyA2IDcgNiA3IDcgMTQiLz4mI3hhOyAgICAgICAgPHBhdGggaWQ9InBhdGg3MiIgc3R5bGU9ImZpbGw6bm9uZTtzdHJva2U6IzAwMDAwMDtzdHJva2Utd2lkdGg6MTc7c3Ryb2tlLWxpbmVjYXA6cm91bmQ7c3Ryb2tlLWxpbmVqb2luOnJvdW5kO3N0cm9rZS1taXRlcmxpbWl0OjEwO3N0cm9rZS1kYXNoYXJyYXk6bm9uZTtzdHJva2Utb3BhY2l0eToxIiBkPSJNIDkyNTgsNDA5MCBWIDU5MTUiLz4mI3hhOyAgICAgIDwvZz4mI3hhOyAgICA8L2c+JiN4YTsgIDwvZz4mI3hhOzwvc3ZnPg==;flipV=1;flipH=0;" parent="1" vertex="1">
          <mxGeometry x="437.107" y="659.4469999999999" width="70.93" height="70.93" as="geometry" />
        </mxCell>
        <mxCell id="rriGDJWvNKK0h5WxVhIS-5" value="" style="rounded=1;whiteSpace=wrap;html=1;fillColor=none;aspect=fixed;strokeWidth=0.15;" parent="1" vertex="1">
          <mxGeometry x="417.322" y="179.13" width="31.496" height="31.5" as="geometry" />
        </mxCell>
        <mxCell id="2RvrD_zvAgO71dk37cje-1" value="" style="rounded=1;whiteSpace=wrap;html=1;fillColor=none;aspect=fixed;strokeWidth=0.15;" parent="1" vertex="1">
          <mxGeometry x="377.952" y="179.1285" width="31.496" height="31.5" as="geometry" />
        </mxCell>
        <mxCell id="2RvrD_zvAgO71dk37cje-2" value="" style="rounded=1;whiteSpace=wrap;html=1;fillColor=none;aspect=fixed;strokeWidth=0.15;" parent="1" vertex="1">
          <mxGeometry x="417.3705" y="771.6485" width="31.496" height="31.5" as="geometry" />
        </mxCell>
        <mxCell id="2RvrD_zvAgO71dk37cje-3" value="" style="rounded=1;whiteSpace=wrap;html=1;fillColor=none;aspect=fixed;strokeWidth=0.15;" parent="1" vertex="1">
          <mxGeometry x="378.0005" y="771.647" width="31.496" height="31.5" as="geometry" />
        </mxCell>
        <mxCell id="2RvrD_zvAgO71dk37cje-4" value="&lt;font color=&quot;#000000&quot; style=&quot;font-size: 8px;&quot;&gt;+&lt;/font&gt;" style="text;html=1;align=center;verticalAlign=middle;whiteSpace=wrap;rounded=0;fontFamily=Verdana;fontSize=8;fontColor=#E41B17;fontStyle=1;labelBackgroundColor=none;labelBorderColor=none;textShadow=0;" parent="1" vertex="1">
          <mxGeometry x="376.97249999999985" y="185.78250000000017" width="33.46" height="18.19" as="geometry" />
        </mxCell>
        <mxCell id="2RvrD_zvAgO71dk37cje-5" value="&lt;font color=&quot;#000000&quot; style=&quot;font-size: 8px;&quot;&gt;-&lt;/font&gt;" style="text;html=1;align=center;verticalAlign=middle;whiteSpace=wrap;rounded=0;fontFamily=Verdana;fontSize=8;fontColor=#E41B17;fontStyle=1;labelBackgroundColor=none;labelBorderColor=none;textShadow=0;" parent="1" vertex="1">
          <mxGeometry x="417.3709999999998" y="185.78100000000018" width="33.46" height="18.19" as="geometry" />
        </mxCell>
        <mxCell id="2RvrD_zvAgO71dk37cje-6" value="&lt;font color=&quot;#000000&quot; style=&quot;font-size: 8px;&quot;&gt;+&lt;/font&gt;" style="text;html=1;align=center;verticalAlign=middle;whiteSpace=wrap;rounded=0;fontFamily=Verdana;fontSize=8;fontColor=#E41B17;fontStyle=1;labelBackgroundColor=none;labelBorderColor=none;textShadow=0;" parent="1" vertex="1">
          <mxGeometry x="377.00099999999986" y="778.3010000000002" width="33.46" height="18.19" as="geometry" />
        </mxCell>
        <mxCell id="2RvrD_zvAgO71dk37cje-7" value="&lt;font color=&quot;#000000&quot; style=&quot;font-size: 8px;&quot;&gt;-&lt;/font&gt;" style="text;html=1;align=center;verticalAlign=middle;whiteSpace=wrap;rounded=0;fontFamily=Verdana;fontSize=8;fontColor=#E41B17;fontStyle=1;labelBackgroundColor=none;labelBorderColor=none;textShadow=0;" parent="1" vertex="1">
          <mxGeometry x="417.3994999999998" y="778.2995000000001" width="33.46" height="18.19" as="geometry" />
        </mxCell>
        <mxCell id="2RvrD_zvAgO71dk37cje-8" value="&lt;font color=&quot;#000000&quot; style=&quot;font-size: 8px;&quot;&gt;(L)&lt;/font&gt;" style="text;html=1;align=center;verticalAlign=middle;whiteSpace=wrap;rounded=0;fontFamily=Verdana;fontSize=8;fontColor=#E41B17;fontStyle=1;labelBackgroundColor=none;labelBorderColor=none;textShadow=0;" parent="1" vertex="1">
          <mxGeometry x="337.73249999999985" y="265.7425000000002" width="33.46" height="18.19" as="geometry" />
        </mxCell>
        <mxCell id="2RvrD_zvAgO71dk37cje-10" value="&lt;font color=&quot;#000000&quot; style=&quot;font-size: 8px;&quot;&gt;(L)&lt;/font&gt;" style="text;html=1;align=center;verticalAlign=middle;whiteSpace=wrap;rounded=0;fontFamily=Verdana;fontSize=8;fontColor=#E41B17;fontStyle=1;labelBackgroundColor=none;labelBorderColor=none;textShadow=0;" parent="1" vertex="1">
          <mxGeometry x="455.72099999999983" y="265.74100000000016" width="33.46" height="18.19" as="geometry" />
        </mxCell>
        <mxCell id="2RvrD_zvAgO71dk37cje-11" value="&lt;font color=&quot;#000000&quot; style=&quot;font-size: 8px;&quot;&gt;(L)&lt;/font&gt;" style="text;html=1;align=center;verticalAlign=middle;whiteSpace=wrap;rounded=0;fontFamily=Verdana;fontSize=8;fontColor=#E41B17;fontStyle=1;labelBackgroundColor=none;labelBorderColor=none;textShadow=0;" parent="1" vertex="1">
          <mxGeometry x="337.58099999999985" y="697.5310000000002" width="33.46" height="18.19" as="geometry" />
        </mxCell>
        <mxCell id="2RvrD_zvAgO71dk37cje-12" value="&lt;font color=&quot;#000000&quot; style=&quot;font-size: 8px;&quot;&gt;(L)&lt;/font&gt;" style="text;html=1;align=center;verticalAlign=middle;whiteSpace=wrap;rounded=0;fontFamily=Verdana;fontSize=8;fontColor=#E41B17;fontStyle=1;labelBackgroundColor=none;labelBorderColor=none;textShadow=0;" parent="1" vertex="1">
          <mxGeometry x="455.7194999999998" y="697.5295000000001" width="33.46" height="18.19" as="geometry" />
        </mxCell>
        <mxCell id="BrNzGxmRZwCwyTXX9haU-3" value="" style="endArrow=none;html=1;rounded=0;strokeWidth=1.5;" parent="1" edge="1">
          <mxGeometry width="50" height="50" relative="1" as="geometry">
            <mxPoint x="434" y="254" as="sourcePoint" />
            <mxPoint x="434" y="210" as="targetPoint" />
          </mxGeometry>
        </mxCell>
        <mxCell id="jK_vld3Wya_w_Z-3e2AY-1" value="" style="shape=image;verticalLabelPosition=bottom;verticalAlign=top;imageAspect=0;aspect=fixed;image=data:image/svg+xml,PHN2ZyB4bWxuczp4bGluaz0iaHR0cDovL3d3dy53My5vcmcvMTk5OS94bGluayIgeG1sbnM9Imh0dHA6Ly93d3cudzMub3JnLzIwMDAvc3ZnIiB2aWV3Qm94PSIwIDAgNzY4IDc2OCIgaGVpZ2h0PSI3NjgiIHdpZHRoPSI3NjgiIHZlcnNpb249IjEuMSI+JiN4YTs8ZGVmcz4mI3hhOzxjbGlwUGF0aCBpZD0iY2xpcF8wIj4mI3hhOzxwYXRoIGQ9Ik0wIDQ1ODlIMTI3OTlWNzk2NEgwVjQ1ODkiIHRyYW5zZm9ybT0ibWF0cml4KC4wNiwwLDAsLS4wNiwwLDc2OCkiLz4mI3hhOzwvY2xpcFBhdGg+JiN4YTs8L2RlZnM+JiN4YTs8ZyBjbGlwLXBhdGg9InVybCgjY2xpcF8wKSI+JiN4YTs8Zz4mI3hhOzxwYXRoIGQ9Ik0xMTMzMC41IDU3NzhDMTExNTguMDM3IDU3NzggMTEwMDYuNzg3IDU2NjIuODc2NyAxMDk2MC44NTMgNTQ5Ni42NDI4IiBzdHJva2U9IiMwMDAwMDAiIGZpbGw9Im5vbmUiIHN0cm9rZS1saW5lam9pbj0icm91bmQiIHN0cm9rZS1saW5lY2FwPSJyb3VuZCIgc3Ryb2tlLXdpZHRoPSIxNyIgdHJhbnNmb3JtPSJtYXRyaXgoLjA2LDAsMCwtLjA2LDAsNzY4KSIvPiYjeGE7PHBhdGggZD0iTS0xMDIuMTQyNTkgMzY5LjY0NzNDLTI2OC4zNzYyNiAzMjMuNzEyOS0zODMuNSAxNzIuNDYzMzUtMzgzLjUgMCIgc3Ryb2tlPSIjMDAwMDAwIiBmaWxsPSJub25lIiBzdHJva2UtbGluZWpvaW49InJvdW5kIiBzdHJva2UtbGluZWNhcD0icm91bmQiIHN0cm9rZS13aWR0aD0iMTciIHRyYW5zZm9ybT0ibWF0cml4KDAsLS4wNiwtLjA2LC0wLDY3OS44Mjk5OCwzMzguNDMwMDMpIi8+JiN4YTs8cGF0aCBkPSJNMTI3NDEgNjQ2OC41QzEyNzQxIDY2MzguMzI3OCAxMjYwMy4zMjcgNjc3NiAxMjQzMy41IDY3NzYiIHN0cm9rZT0iIzAwMDAwMCIgZmlsbD0ibm9uZSIgc3Ryb2tlLWxpbmVqb2luPSJyb3VuZCIgc3Ryb2tlLWxpbmVjYXA9InJvdW5kIiBzdHJva2Utd2lkdGg9IjE3IiB0cmFuc2Zvcm09Im1hdHJpeCguMDYsMCwwLC0uMDYsMCw3NjgpIi8+JiN4YTs8cGF0aCBkPSJNMTI0MzMgNjc3NkgxMjQzMSAxMjQyNSAxMjQxNSAxMjQwMiAxMjM4NCAxMjM2MyAxMjMzOCAxMjMxMCAxMjI3OCAxMjI0MiAxMjIwMyAxMjE2MSAxMjExNiAxMjA2OSAxMjAxOCAxMTk2NSAxMTkwOSAxMTg1MSAxMTc5MSAxMTcyOSAxMTY2NiAxMTYwMSAxMTUzNCAxMTQ2NyAxMTM5OSAxMTMzMCIgc3Ryb2tlPSIjMDAwMDAwIiBmaWxsPSJub25lIiBzdHJva2UtbGluZWpvaW49InJvdW5kIiBzdHJva2UtbGluZWNhcD0icm91bmQiIHN0cm9rZS13aWR0aD0iMTciIHRyYW5zZm9ybT0ibWF0cml4KC4wNiwwLDAsLS4wNiwwLDc2OCkiLz4mI3hhOzxwYXRoIGQ9Ik0xMjc0MCA2MDg1VjY0NjgiIHN0cm9rZT0iIzAwMDAwMCIgZmlsbD0ibm9uZSIgc3Ryb2tlLWxpbmVqb2luPSJyb3VuZCIgc3Ryb2tlLWxpbmVjYXA9InJvdW5kIiBzdHJva2Utd2lkdGg9IjE3IiB0cmFuc2Zvcm09Im1hdHJpeCguMDYsMCwwLC0uMDYsMCw3NjgpIi8+JiN4YTs8cGF0aCBkPSJNMTEzMzAgNTc3N0gxMTM5OSAxMTQ2NyAxMTUzNCAxMTYwMSAxMTY2NiAxMTcyOSAxMTc5MSAxMTg1MSAxMTkwOSAxMTk2NSAxMjAxOCAxMjA2OSAxMjExNiAxMjE2MSAxMjIwMyAxMjI0MiAxMjI3OCAxMjMxMCAxMjMzOCAxMjM2MyAxMjM4NCAxMjQwMiAxMjQxNSAxMjQyNSAxMjQzMSAxMjQzMyIgc3Ryb2tlPSIjMDAwMDAwIiBmaWxsPSJub25lIiBzdHJva2UtbGluZWpvaW49InJvdW5kIiBzdHJva2UtbGluZWNhcD0icm91bmQiIHN0cm9rZS13aWR0aD0iMTciIHRyYW5zZm9ybT0ibWF0cml4KC4wNiwwLDAsLS4wNiwwLDc2OCkiLz4mI3hhOzxwYXRoIGQ9Ik0xMjQzMy41IDU3NzhDMTI2MDMuMzI3IDU3NzggMTI3NDEgNTkxNS42NzI2IDEyNzQxIDYwODUuNSIgc3Ryb2tlPSIjMDAwMDAwIiBmaWxsPSJub25lIiBzdHJva2UtbGluZWpvaW49InJvdW5kIiBzdHJva2UtbGluZWNhcD0icm91bmQiIHN0cm9rZS13aWR0aD0iMTciIHRyYW5zZm9ybT0ibWF0cml4KC4wNiwwLDAsLS4wNiwwLDc2OCkiLz4mI3hhOzxwYXRoIGQ9Ik05OTY5LjUgNDc0MkMxMDQ1NC4yNDcgNDc0MiAxMDg3My4xOSA1MDgwLjQ3NCAxMDk3NS4wNDEgNTU1NC40IiBzdHJva2U9IiMwMDAwMDAiIGZpbGw9Im5vbmUiIHN0cm9rZS1saW5lam9pbj0icm91bmQiIHN0cm9rZS1saW5lY2FwPSJyb3VuZCIgc3Ryb2tlLXdpZHRoPSIxNyIgdHJhbnNmb3JtPSJtYXRyaXgoLjA2LDAsMCwtLjA2LDAsNzY4KSIvPiYjeGE7PHBhdGggZD0iTTE0NTIuNSA2Nzc2QzE2MjQuOTYzNCA2Nzc2IDE3NzYuMjEyOSA2ODkxLjEyMzcgMTgyMi4xNDczIDcwNTcuMzU3NiIgc3Ryb2tlPSIjMDAwMDAwIiBmaWxsPSJub25lIiBzdHJva2UtbGluZWpvaW49InJvdW5kIiBzdHJva2UtbGluZWNhcD0icm91bmQiIHN0cm9rZS13aWR0aD0iMTciIHRyYW5zZm9ybT0ibWF0cml4KC4wNiwwLDAsLS4wNiwwLDc2OCkiLz4mI3hhOzxwYXRoIGQ9Ik0tMTAyLjE0MjU5IDM2OS42NDczQy0yNjguMzc2MjYgMzIzLjcxMjktMzgzLjUgMTcyLjQ2MzM1LTM4My41IDAiIHN0cm9rZT0iIzAwMDAwMCIgZmlsbD0ibm9uZSIgc3Ryb2tlLWxpbmVqb2luPSJyb3VuZCIgc3Ryb2tlLWxpbmVjYXA9InJvdW5kIiBzdHJva2Utd2lkdGg9IjE3IiB0cmFuc2Zvcm09Im1hdHJpeCgwLC4wNiwuMDYsMCw4Ny4xNSw0NDQuMzMwMDMpIi8+JiN4YTs8cGF0aCBkPSJNNDMgNjA4NS41QzQzIDU5MTUuNjcyNiAxODAuNjcyNDMgNTc3OCAzNTAuNSA1Nzc4IiBzdHJva2U9IiMwMDAwMDAiIGZpbGw9Im5vbmUiIHN0cm9rZS1saW5lam9pbj0icm91bmQiIHN0cm9rZS1saW5lY2FwPSJyb3VuZCIgc3Ryb2tlLXdpZHRoPSIxNyIgdHJhbnNmb3JtPSJtYXRyaXgoLjA2LDAsMCwtLjA2LDAsNzY4KSIvPiYjeGE7PHBhdGggZD0iTTM1MCA1Nzc3SDM1MiAzNTggMzY3IDM4MSAzOTggNDIwIDQ0NCA0NzMgNTA1IDU0MCA1NzkgNjIxIDY2NiA3MTQgNzY1IDgxOCA4NzQgOTMyIDk5MiAxMDUzIDExMTcgMTE4MiAxMjQ4IDEzMTYgMTM4NCAxNDUyIiBzdHJva2U9IiMwMDAwMDAiIGZpbGw9Im5vbmUiIHN0cm9rZS1saW5lam9pbj0icm91bmQiIHN0cm9rZS1saW5lY2FwPSJyb3VuZCIgc3Ryb2tlLXdpZHRoPSIxNyIgdHJhbnNmb3JtPSJtYXRyaXgoLjA2LDAsMCwtLjA2LDAsNzY4KSIvPiYjeGE7PHBhdGggZD0iTTQzIDY0NjhWNjA4NSIgc3Ryb2tlPSIjMDAwMDAwIiBmaWxsPSJub25lIiBzdHJva2UtbGluZWpvaW49InJvdW5kIiBzdHJva2UtbGluZWNhcD0icm91bmQiIHN0cm9rZS13aWR0aD0iMTciIHRyYW5zZm9ybT0ibWF0cml4KC4wNiwwLDAsLS4wNiwwLDc2OCkiLz4mI3hhOzxwYXRoIGQ9Ik0xNDUyIDY3NzZIMTM4NCAxMzE2IDEyNDggMTE4MiAxMTE3IDEwNTMgOTkyIDkzMiA4NzQgODE4IDc2NSA3MTQgNjY2IDYyMSA1NzkgNTQwIDUwNSA0NzMgNDQ0IDQyMCAzOTggMzgxIDM2NyAzNTggMzUyIDM1MCIgc3Ryb2tlPSIjMDAwMDAwIiBmaWxsPSJub25lIiBzdHJva2UtbGluZWpvaW49InJvdW5kIiBzdHJva2UtbGluZWNhcD0icm91bmQiIHN0cm9rZS13aWR0aD0iMTciIHRyYW5zZm9ybT0ibWF0cml4KC4wNiwwLDAsLS4wNiwwLDc2OCkiLz4mI3hhOzxwYXRoIGQ9Ik0zNTAuNSA2Nzc2QzE4MC42NzI0MyA2Nzc2IDQzIDY2MzguMzI3OCA0MyA2NDY4LjUiIHN0cm9rZT0iIzAwMDAwMCIgZmlsbD0ibm9uZSIgc3Ryb2tlLWxpbmVqb2luPSJyb3VuZCIgc3Ryb2tlLWxpbmVjYXA9InJvdW5kIiBzdHJva2Utd2lkdGg9IjE3IiB0cmFuc2Zvcm09Im1hdHJpeCguMDYsMCwwLC0uMDYsMCw3NjgpIi8+JiN4YTs8cGF0aCBkPSJNMjgxNC41IDc4MTJDMjMyOS43NTMyIDc4MTIgMTkxMC44MDk4IDc0NzMuNTI2IDE4MDguOTU4OSA2OTk5LjYiIHN0cm9rZT0iIzAwMDAwMCIgZmlsbD0ibm9uZSIgc3Ryb2tlLWxpbmVqb2luPSJyb3VuZCIgc3Ryb2tlLWxpbmVjYXA9InJvdW5kIiBzdHJva2Utd2lkdGg9IjE3IiB0cmFuc2Zvcm09Im1hdHJpeCguMDYsMCwwLC0uMDYsMCw3NjgpIi8+JiN4YTs8cGF0aCBkPSJNODMxMCA1MTIzVjUxMjUgNTEzMSA1MTQwIDUxNTMgNTE2OSA1MTg4IDUyMTEgNTIzNiA1MjY0IDUyOTQgNTMyNiA1MzYwIDUzOTYgNTQzMiA1NDcwIDU1MDcgNzA1MiA3MDkwIDcxMjcgNzE2MyA3MTk5IDcyMzMgNzI2NSA3Mjk1IDczMjMgNzM0OSA3MzcxIDczOTAgNzQwNyA3NDE5IDc0MjggNzQzNCA3NDM2IiBzdHJva2U9IiMwMDAwMDAiIGZpbGw9Im5vbmUiIHN0cm9rZS1saW5lam9pbj0icm91bmQiIHN0cm9rZS1saW5lY2FwPSJyb3VuZCIgc3Ryb2tlLXdpZHRoPSIxNyIgdHJhbnNmb3JtPSJtYXRyaXgoLjA2LDAsMCwtLjA2LDAsNzY4KSIvPiYjeGE7PHBhdGggZD0iTTY3NzUgNTEyM1Y1MTI1IDUxMzEgNTE0MCA1MTUzIDUxNjkgNTE4OCA1MjExIDUyMzYgNTI2NCA1Mjk0IDUzMjYgNTM2MCA1Mzk2IDU0MzIgNTQ3MCA1NTA3IDcwNTIgNzA5MCA3MTI3IDcxNjMgNzE5OSA3MjMzIDcyNjUgNzI5NSA3MzIzIDczNDkgNzM3MSA3MzkwIDc0MDcgNzQxOSA3NDI4IDc0MzQgNzQzNiIgc3Ryb2tlPSIjMDAwMDAwIiBmaWxsPSJub25lIiBzdHJva2UtbGluZWpvaW49InJvdW5kIiBzdHJva2UtbGluZWNhcD0icm91bmQiIHN0cm9rZS13aWR0aD0iMTciIHRyYW5zZm9ybT0ibWF0cml4KC4wNiwwLDAsLS4wNiwwLDc2OCkiLz4mI3hhOzxwYXRoIGQ9Ik02MDA3IDc0MzZWNzQzNCA3NDI4IDc0MTkgNzQwNyA3MzkwIDczNzEgNzM0OSA3MzIzIDcyOTUgNzI2NSA3MjMzIDcxOTkgNzE2MyA3MTI3IDcwOTAgNzA1MiA1NTA3IDU0NzAgNTQzMiA1Mzk2IDUzNjAgNTMyNiA1Mjk0IDUyNjQgNTIzNiA1MjExIDUxODggNTE2OSA1MTUzIDUxNDAgNTEzMSA1MTI1IDUxMjMiIHN0cm9rZT0iIzAwMDAwMCIgZmlsbD0ibm9uZSIgc3Ryb2tlLWxpbmVqb2luPSJyb3VuZCIgc3Ryb2tlLWxpbmVjYXA9InJvdW5kIiBzdHJva2Utd2lkdGg9IjE3IiB0cmFuc2Zvcm09Im1hdHJpeCguMDYsMCwwLC0uMDYsMCw3NjgpIi8+JiN4YTs8cGF0aCBkPSJNNDQ3MiA3NDM2Vjc0MzQgNzQyOCA3NDE5IDc0MDcgNzM5MCA3MzcxIDczNDkgNzMyMyA3Mjk1IDcyNjUgNzIzMyA3MTk5IDcxNjMgNzEyNyA3MDkwIDcwNTIgNTUwNyA1NDcwIDU0MzIgNTM5NiA1MzYwIDUzMjYgNTI5NCA1MjY0IDUyMzYgNTIxMSA1MTg4IDUxNjkgNTE1MyA1MTQwIDUxMzEgNTEyNSA1MTIzIiBzdHJva2U9IiMwMDAwMDAiIGZpbGw9Im5vbmUiIHN0cm9rZS1saW5lam9pbj0icm91bmQiIHN0cm9rZS1saW5lY2FwPSJyb3VuZCIgc3Ryb2tlLXdpZHRoPSIxNyIgdHJhbnNmb3JtPSJtYXRyaXgoLjA2LDAsMCwtLjA2LDAsNzY4KSIvPiYjeGE7PHBhdGggZD0iTTQ0NzIgNTEyM0g1MjQwVjUxMjUgNTEzMSA1MTQwIDUxNTMgNTE2OSA1MTg4IDUyMTEgNTIzNiA1MjY0IDUyOTQgNTMyNiA1MzYwIDUzOTYgNTQzMiA1NDcwIDU1MDcgNzA1MiA3MDkwIDcxMjcgNzE2MyA3MTk5IDcyMzMgNzI2NSA3Mjk1IDczMjMgNzM0OSA3MzcxIDczOTAgNzQwNyA3NDE5IDc0MjggNzQzNCA3NDM2IiBzdHJva2U9IiMwMDAwMDAiIGZpbGw9Im5vbmUiIHN0cm9rZS1saW5lam9pbj0icm91bmQiIHN0cm9rZS1saW5lY2FwPSJyb3VuZCIgc3Ryb2tlLXdpZHRoPSIxNyIgdHJhbnNmb3JtPSJtYXRyaXgoLjA2LDAsMCwtLjA2LDAsNzY4KSIvPiYjeGE7PHBhdGggZD0iTTc1NDMgNTEyM0g4MzEwIiBzdHJva2U9IiMwMDAwMDAiIGZpbGw9Im5vbmUiIHN0cm9rZS1saW5lam9pbj0icm91bmQiIHN0cm9rZS1saW5lY2FwPSJyb3VuZCIgc3Ryb2tlLXdpZHRoPSIxNyIgdHJhbnNmb3JtPSJtYXRyaXgoLjA2LDAsMCwtLjA2LDAsNzY4KSIvPiYjeGE7PHBhdGggZD0iTTYwMDcgNTEyM0g2Nzc1IiBzdHJva2U9IiMwMDAwMDAiIGZpbGw9Im5vbmUiIHN0cm9rZS1saW5lam9pbj0icm91bmQiIHN0cm9rZS1saW5lY2FwPSJyb3VuZCIgc3Ryb2tlLXdpZHRoPSIxNyIgdHJhbnNmb3JtPSJtYXRyaXgoLjA2LDAsMCwtLjA2LDAsNzY4KSIvPiYjeGE7PHBhdGggZD0iTTc1NDMgNzA1MlY1NTA3IDU0NzAgNTQzMiA1Mzk2IDUzNjAgNTMyNiA1Mjk0IDUyNjQgNTIzNiA1MjExIDUxODggNTE2OSA1MTUzIDUxNDAgNTEzMSA1MTI1IDUxMjMiIHN0cm9rZT0iIzAwMDAwMCIgZmlsbD0ibm9uZSIgc3Ryb2tlLWxpbmVqb2luPSJyb3VuZCIgc3Ryb2tlLWxpbmVjYXA9InJvdW5kIiBzdHJva2Utd2lkdGg9IjE3IiB0cmFuc2Zvcm09Im1hdHJpeCguMDYsMCwwLC0uMDYsMCw3NjgpIi8+JiN4YTs8cGF0aCBkPSJNNTI0MCA3NDM2SDQ0NzIiIHN0cm9rZT0iIzAwMDAwMCIgZmlsbD0ibm9uZSIgc3Ryb2tlLWxpbmVqb2luPSJyb3VuZCIgc3Ryb2tlLWxpbmVjYXA9InJvdW5kIiBzdHJva2Utd2lkdGg9IjE3IiB0cmFuc2Zvcm09Im1hdHJpeCguMDYsMCwwLC0uMDYsMCw3NjgpIi8+JiN4YTs8cGF0aCBkPSJNNjc3NSA3NDM2SDYwMDciIHN0cm9rZT0iIzAwMDAwMCIgZmlsbD0ibm9uZSIgc3Ryb2tlLWxpbmVqb2luPSJyb3VuZCIgc3Ryb2tlLWxpbmVjYXA9InJvdW5kIiBzdHJva2Utd2lkdGg9IjE3IiB0cmFuc2Zvcm09Im1hdHJpeCguMDYsMCwwLC0uMDYsMCw3NjgpIi8+JiN4YTs8cGF0aCBkPSJNODMxMCA3NDM2SDc1NDNWNzQzNCA3NDI4IDc0MTkgNzQwNyA3MzkwIDczNzEgNzM0OSA3MzIzIDcyOTUgNzI2NSA3MjMzIDcxOTkgNzE2MyA3MTI3IDcwOTAgNzA1MiIgc3Ryb2tlPSIjMDAwMDAwIiBmaWxsPSJub25lIiBzdHJva2UtbGluZWpvaW49InJvdW5kIiBzdHJva2UtbGluZWNhcD0icm91bmQiIHN0cm9rZS13aWR0aD0iMTciIHRyYW5zZm9ybT0ibWF0cml4KC4wNiwwLDAsLS4wNiwwLDc2OCkiLz4mI3hhOzxwYXRoIGQ9Ik02MDA3IDc0MjhINTI0MCIgc3Ryb2tlPSIjMDAwMDAwIiBmaWxsPSJub25lIiBzdHJva2UtbGluZWpvaW49InJvdW5kIiBzdHJva2UtbGluZWNhcD0icm91bmQiIHN0cm9rZS13aWR0aD0iMTciIHRyYW5zZm9ybT0ibWF0cml4KC4wNiwwLDAsLS4wNiwwLDc2OCkiLz4mI3hhOzxwYXRoIGQ9Ik03NTQzIDc0MjhINjc3NSIgc3Ryb2tlPSIjMDAwMDAwIiBmaWxsPSJub25lIiBzdHJva2UtbGluZWpvaW49InJvdW5kIiBzdHJva2UtbGluZWNhcD0icm91bmQiIHN0cm9rZS13aWR0aD0iMTciIHRyYW5zZm9ybT0ibWF0cml4KC4wNiwwLDAsLS4wNiwwLDc2OCkiLz4mI3hhOzxwYXRoIGQ9Ik01MjQwIDUxMjVINjAwNyIgc3Ryb2tlPSIjMDAwMDAwIiBmaWxsPSJub25lIiBzdHJva2UtbGluZWpvaW49InJvdW5kIiBzdHJva2UtbGluZWNhcD0icm91bmQiIHN0cm9rZS13aWR0aD0iMTciIHRyYW5zZm9ybT0ibWF0cml4KC4wNiwwLDAsLS4wNiwwLDc2OCkiLz4mI3hhOzxwYXRoIGQ9Ik02Nzc1IDUxMjVINzU0MyIgc3Ryb2tlPSIjMDAwMDAwIiBmaWxsPSJub25lIiBzdHJva2UtbGluZWpvaW49InJvdW5kIiBzdHJva2UtbGluZWNhcD0icm91bmQiIHN0cm9rZS13aWR0aD0iMTciIHRyYW5zZm9ybT0ibWF0cml4KC4wNiwwLDAsLS4wNiwwLDc2OCkiLz4mI3hhOzxwYXRoIGQ9Ik0tMTkxLjY3NTcgMzMyLjE2MzY1Qy0zMTAuMzcyODcgMjYzLjY2OTItMzgzLjUgMTM3LjA0MTk5LTM4My41IDAiIHN0cm9rZT0iIzAwMDAwMCIgZmlsbD0ibm9uZSIgc3Ryb2tlLWxpbmVqb2luPSJyb3VuZCIgc3Ryb2tlLWxpbmVjYXA9InJvdW5kIiBzdHJva2Utd2lkdGg9IjE3IiB0cmFuc2Zvcm09Im1hdHJpeCgwLC0uMDYsLS4wNiwtMCwyNjIuMTY5OTksMjk5LjI1KSIvPiYjeGE7PHBhdGggZD0iTS0xOTEuNjc1NyAzMzIuMTYzNjVDLTMxMC4zNzI4NyAyNjMuNjY5Mi0zODMuNSAxMzcuMDQxOTktMzgzLjUgMCIgc3Ryb2tlPSIjMDAwMDAwIiBmaWxsPSJub25lIiBzdHJva2UtbGluZWpvaW49InJvdW5kIiBzdHJva2UtbGluZWNhcD0icm91bmQiIHN0cm9rZS13aWR0aD0iMTciIHRyYW5zZm9ybT0ibWF0cml4KC4wNTE5Njg0LC4wMjk5ODg2LC4wMjk5ODg2LC0uMDUxOTY4NCwyNjIuMTY5OTksNDgzLjUxKSIvPiYjeGE7PHBhdGggZD0iTS0xOTEuNjc1NyAzMzIuMTYzNjVDLTMxMC4zNzI4NyAyNjMuNjY5Mi0zODMuNSAxMzcuMDQxOTktMzgzLjUgMCIgc3Ryb2tlPSIjMDAwMDAwIiBmaWxsPSJub25lIiBzdHJva2UtbGluZWpvaW49InJvdW5kIiBzdHJva2UtbGluZWNhcD0icm91bmQiIHN0cm9rZS13aWR0aD0iMTciIHRyYW5zZm9ybT0ibWF0cml4KDAsLjA2LC4wNiwwLDIyMi4zMywzMjIuMjkpIi8+JiN4YTs8cGF0aCBkPSJNNDQ3MiA3NDI4SDQzNDkiIHN0cm9rZT0iIzAwMDAwMCIgZmlsbD0ibm9uZSIgc3Ryb2tlLWxpbmVqb2luPSJyb3VuZCIgc3Ryb2tlLWxpbmVjYXA9InJvdW5kIiBzdHJva2Utd2lkdGg9IjE3IiB0cmFuc2Zvcm09Im1hdHJpeCguMDYsMCwwLC0uMDYsMCw3NjgpIi8+JiN4YTs8cGF0aCBkPSJNNDM0OSA1MTI1SDQ0NzIiIHN0cm9rZT0iIzAwMDAwMCIgZmlsbD0ibm9uZSIgc3Ryb2tlLWxpbmVqb2luPSJyb3VuZCIgc3Ryb2tlLWxpbmVjYXA9InJvdW5kIiBzdHJva2Utd2lkdGg9IjE3IiB0cmFuc2Zvcm09Im1hdHJpeCguMDYsMCwwLC0uMDYsMCw3NjgpIi8+JiN4YTs8cGF0aCBkPSJNLTE5MS42NzU3IDMzMi4xNjM2NUMtMzEwLjM3Mjg3IDI2My42NjkyLTM4My41IDEzNy4wNDE5OS0zODMuNSAwIiBzdHJva2U9IiMwMDAwMDAiIGZpbGw9Im5vbmUiIHN0cm9rZS1saW5lam9pbj0icm91bmQiIHN0cm9rZS1saW5lY2FwPSJyb3VuZCIgc3Ryb2tlLXdpZHRoPSIxNyIgdHJhbnNmb3JtPSJtYXRyaXgoLS4wNTE5Njg0LC0uMDI5OTg4NiwtLjAyOTk4ODYsLjA1MTk2ODQsNTA0LjgxLDI5OS4yNSkiLz4mI3hhOzxwYXRoIGQ9Ik0tMTkxLjY3NTcgMzMyLjE2MzY1Qy0zMTAuMzcyODcgMjYzLjY2OTItMzgzLjUgMTM3LjA0MTk5LTM4My41IDAiIHN0cm9rZT0iIzAwMDAwMCIgZmlsbD0ibm9uZSIgc3Ryb2tlLWxpbmVqb2luPSJyb3VuZCIgc3Ryb2tlLWxpbmVjYXA9InJvdW5kIiBzdHJva2Utd2lkdGg9IjE3IiB0cmFuc2Zvcm09Im1hdHJpeCgwLC4wNiwuMDYsMCw1MDQuODEsNDgzLjUxKSIvPiYjeGE7PHBhdGggZD0iTTgzMTAgNTEyNUg4NDMzIiBzdHJva2U9IiMwMDAwMDAiIGZpbGw9Im5vbmUiIHN0cm9rZS1saW5lam9pbj0icm91bmQiIHN0cm9rZS1saW5lY2FwPSJyb3VuZCIgc3Ryb2tlLXdpZHRoPSIxNyIgdHJhbnNmb3JtPSJtYXRyaXgoLjA2LDAsMCwtLjA2LDAsNzY4KSIvPiYjeGE7PHBhdGggZD0iTTkwNzguNSA3ODEyQzg5NDEuNDU4IDc4MTIgODgxNC44MzEgNzczOC44NzMgODc0Ni4zMzYgNzYyMC4xNzYiIHN0cm9rZT0iIzAwMDAwMCIgZmlsbD0ibm9uZSIgc3Ryb2tlLWxpbmVqb2luPSJyb3VuZCIgc3Ryb2tlLWxpbmVjYXA9InJvdW5kIiBzdHJva2Utd2lkdGg9IjE3IiB0cmFuc2Zvcm09Im1hdHJpeCguMDYsMCwwLC0uMDYsMCw3NjgpIi8+JiN4YTs8cGF0aCBkPSJNODc0Ni4zMzYgNDkzMy44MjRDODgxNC44MzEgNDgxNS4xMjcgODk0MS40NTggNDc0MiA5MDc4LjUgNDc0MiIgc3Ryb2tlPSIjMDAwMDAwIiBmaWxsPSJub25lIiBzdHJva2UtbGluZWpvaW49InJvdW5kIiBzdHJva2UtbGluZWNhcD0icm91bmQiIHN0cm9rZS13aWR0aD0iMTciIHRyYW5zZm9ybT0ibWF0cml4KC4wNiwwLDAsLS4wNiwwLDc2OCkiLz4mI3hhOzxwYXRoIGQ9Ik04NDMzIDc0MjhIODMxMCIgc3Ryb2tlPSIjMDAwMDAwIiBmaWxsPSJub25lIiBzdHJva2UtbGluZWpvaW49InJvdW5kIiBzdHJva2UtbGluZWNhcD0icm91bmQiIHN0cm9rZS13aWR0aD0iMTciIHRyYW5zZm9ybT0ibWF0cml4KC4wNiwwLDAsLS4wNiwwLDc2OCkiLz4mI3hhOzxwYXRoIGQ9Ik05OTY5IDc4MTJIOTA3OCIgc3Ryb2tlPSIjMDAwMDAwIiBmaWxsPSJub25lIiBzdHJva2UtbGluZWpvaW49InJvdW5kIiBzdHJva2UtbGluZWNhcD0icm91bmQiIHN0cm9rZS13aWR0aD0iMTciIHRyYW5zZm9ybT0ibWF0cml4KC4wNiwwLDAsLS4wNiwwLDc2OCkiLz4mI3hhOzxwYXRoIGQ9Ik0zNzA1LjUgNDc0MkMzODQyLjU0MiA0NzQyIDM5NjkuMTY5MyA0ODE1LjEyNyA0MDM3LjY2MzYgNDkzMy44MjQiIHN0cm9rZT0iIzAwMDAwMCIgZmlsbD0ibm9uZSIgc3Ryb2tlLWxpbmVqb2luPSJyb3VuZCIgc3Ryb2tlLWxpbmVjYXA9InJvdW5kIiBzdHJva2Utd2lkdGg9IjE3IiB0cmFuc2Zvcm09Im1hdHJpeCguMDYsMCwwLC0uMDYsMCw3NjgpIi8+JiN4YTs8cGF0aCBkPSJNMjgxNCA0NzQxSDM3MDUiIHN0cm9rZT0iIzAwMDAwMCIgZmlsbD0ibm9uZSIgc3Ryb2tlLWxpbmVqb2luPSJyb3VuZCIgc3Ryb2tlLWxpbmVjYXA9InJvdW5kIiBzdHJva2Utd2lkdGg9IjE3IiB0cmFuc2Zvcm09Im1hdHJpeCguMDYsMCwwLC0uMDYsMCw3NjgpIi8+JiN4YTs8cGF0aCBkPSJNMzcwNSA3ODEySDI4MTQiIHN0cm9rZT0iIzAwMDAwMCIgZmlsbD0ibm9uZSIgc3Ryb2tlLWxpbmVqb2luPSJyb3VuZCIgc3Ryb2tlLWxpbmVjYXA9InJvdW5kIiBzdHJva2Utd2lkdGg9IjE3IiB0cmFuc2Zvcm09Im1hdHJpeCguMDYsMCwwLC0uMDYsMCw3NjgpIi8+JiN4YTs8cGF0aCBkPSJNMTgwOC45NTg5IDU1NTQuNEMxOTEwLjgwOTggNTA4MC40NzQgMjMyOS43NTMyIDQ3NDIgMjgxNC41IDQ3NDIiIHN0cm9rZT0iIzAwMDAwMCIgZmlsbD0ibm9uZSIgc3Ryb2tlLWxpbmVqb2luPSJyb3VuZCIgc3Ryb2tlLWxpbmVjYXA9InJvdW5kIiBzdHJva2Utd2lkdGg9IjE3IiB0cmFuc2Zvcm09Im1hdHJpeCguMDYsMCwwLC0uMDYsMCw3NjgpIi8+JiN4YTs8cGF0aCBkPSJNMTA5NzUuMDQxIDY5OTkuNkMxMDg3My4xOSA3NDczLjUyNiAxMDQ1NC4yNDcgNzgxMiA5OTY5LjUgNzgxMiIgc3Ryb2tlPSIjMDAwMDAwIiBmaWxsPSJub25lIiBzdHJva2UtbGluZWpvaW49InJvdW5kIiBzdHJva2UtbGluZWNhcD0icm91bmQiIHN0cm9rZS13aWR0aD0iMTciIHRyYW5zZm9ybT0ibWF0cml4KC4wNiwwLDAsLS4wNiwwLDc2OCkiLz4mI3hhOzxwYXRoIGQ9Ik05MDc4IDQ3NDFIOTk2OSIgc3Ryb2tlPSIjMDAwMDAwIiBmaWxsPSJub25lIiBzdHJva2UtbGluZWpvaW49InJvdW5kIiBzdHJva2UtbGluZWNhcD0icm91bmQiIHN0cm9rZS13aWR0aD0iMTciIHRyYW5zZm9ybT0ibWF0cml4KC4wNiwwLDAsLS4wNiwwLDc2OCkiLz4mI3hhOzwvZz4mI3hhOzwvZz4mI3hhOzwvc3ZnPg==;rotation=-90;" parent="1" vertex="1">
          <mxGeometry x="410.43000000000006" y="253" width="47.25" height="47.25" as="geometry" />
        </mxCell>
        <mxCell id="jK_vld3Wya_w_Z-3e2AY-3" value="" style="endArrow=none;html=1;rounded=0;strokeWidth=1.5;" parent="1" edge="1">
          <mxGeometry width="50" height="50" relative="1" as="geometry">
            <mxPoint x="433.7885" y="772.9985" as="sourcePoint" />
            <mxPoint x="433.7885" y="728.9985" as="targetPoint" />
          </mxGeometry>
        </mxCell>
        <mxCell id="jK_vld3Wya_w_Z-3e2AY-4" value="" style="shape=image;verticalLabelPosition=bottom;verticalAlign=top;imageAspect=0;aspect=fixed;image=data:image/svg+xml,PHN2ZyB4bWxuczp4bGluaz0iaHR0cDovL3d3dy53My5vcmcvMTk5OS94bGluayIgeG1sbnM9Imh0dHA6Ly93d3cudzMub3JnLzIwMDAvc3ZnIiB2aWV3Qm94PSIwIDAgNzY4IDc2OCIgaGVpZ2h0PSI3NjgiIHdpZHRoPSI3NjgiIHZlcnNpb249IjEuMSI+JiN4YTs8ZGVmcz4mI3hhOzxjbGlwUGF0aCBpZD0iY2xpcF8wIj4mI3hhOzxwYXRoIGQ9Ik0wIDQ1ODlIMTI3OTlWNzk2NEgwVjQ1ODkiIHRyYW5zZm9ybT0ibWF0cml4KC4wNiwwLDAsLS4wNiwwLDc2OCkiLz4mI3hhOzwvY2xpcFBhdGg+JiN4YTs8L2RlZnM+JiN4YTs8ZyBjbGlwLXBhdGg9InVybCgjY2xpcF8wKSI+JiN4YTs8Zz4mI3hhOzxwYXRoIGQ9Ik0xMTMzMC41IDU3NzhDMTExNTguMDM3IDU3NzggMTEwMDYuNzg3IDU2NjIuODc2NyAxMDk2MC44NTMgNTQ5Ni42NDI4IiBzdHJva2U9IiMwMDAwMDAiIGZpbGw9Im5vbmUiIHN0cm9rZS1saW5lam9pbj0icm91bmQiIHN0cm9rZS1saW5lY2FwPSJyb3VuZCIgc3Ryb2tlLXdpZHRoPSIxNyIgdHJhbnNmb3JtPSJtYXRyaXgoLjA2LDAsMCwtLjA2LDAsNzY4KSIvPiYjeGE7PHBhdGggZD0iTS0xMDIuMTQyNTkgMzY5LjY0NzNDLTI2OC4zNzYyNiAzMjMuNzEyOS0zODMuNSAxNzIuNDYzMzUtMzgzLjUgMCIgc3Ryb2tlPSIjMDAwMDAwIiBmaWxsPSJub25lIiBzdHJva2UtbGluZWpvaW49InJvdW5kIiBzdHJva2UtbGluZWNhcD0icm91bmQiIHN0cm9rZS13aWR0aD0iMTciIHRyYW5zZm9ybT0ibWF0cml4KDAsLS4wNiwtLjA2LC0wLDY3OS44Mjk5OCwzMzguNDMwMDMpIi8+JiN4YTs8cGF0aCBkPSJNMTI3NDEgNjQ2OC41QzEyNzQxIDY2MzguMzI3OCAxMjYwMy4zMjcgNjc3NiAxMjQzMy41IDY3NzYiIHN0cm9rZT0iIzAwMDAwMCIgZmlsbD0ibm9uZSIgc3Ryb2tlLWxpbmVqb2luPSJyb3VuZCIgc3Ryb2tlLWxpbmVjYXA9InJvdW5kIiBzdHJva2Utd2lkdGg9IjE3IiB0cmFuc2Zvcm09Im1hdHJpeCguMDYsMCwwLC0uMDYsMCw3NjgpIi8+JiN4YTs8cGF0aCBkPSJNMTI0MzMgNjc3NkgxMjQzMSAxMjQyNSAxMjQxNSAxMjQwMiAxMjM4NCAxMjM2MyAxMjMzOCAxMjMxMCAxMjI3OCAxMjI0MiAxMjIwMyAxMjE2MSAxMjExNiAxMjA2OSAxMjAxOCAxMTk2NSAxMTkwOSAxMTg1MSAxMTc5MSAxMTcyOSAxMTY2NiAxMTYwMSAxMTUzNCAxMTQ2NyAxMTM5OSAxMTMzMCIgc3Ryb2tlPSIjMDAwMDAwIiBmaWxsPSJub25lIiBzdHJva2UtbGluZWpvaW49InJvdW5kIiBzdHJva2UtbGluZWNhcD0icm91bmQiIHN0cm9rZS13aWR0aD0iMTciIHRyYW5zZm9ybT0ibWF0cml4KC4wNiwwLDAsLS4wNiwwLDc2OCkiLz4mI3hhOzxwYXRoIGQ9Ik0xMjc0MCA2MDg1VjY0NjgiIHN0cm9rZT0iIzAwMDAwMCIgZmlsbD0ibm9uZSIgc3Ryb2tlLWxpbmVqb2luPSJyb3VuZCIgc3Ryb2tlLWxpbmVjYXA9InJvdW5kIiBzdHJva2Utd2lkdGg9IjE3IiB0cmFuc2Zvcm09Im1hdHJpeCguMDYsMCwwLC0uMDYsMCw3NjgpIi8+JiN4YTs8cGF0aCBkPSJNMTEzMzAgNTc3N0gxMTM5OSAxMTQ2NyAxMTUzNCAxMTYwMSAxMTY2NiAxMTcyOSAxMTc5MSAxMTg1MSAxMTkwOSAxMTk2NSAxMjAxOCAxMjA2OSAxMjExNiAxMjE2MSAxMjIwMyAxMjI0MiAxMjI3OCAxMjMxMCAxMjMzOCAxMjM2MyAxMjM4NCAxMjQwMiAxMjQxNSAxMjQyNSAxMjQzMSAxMjQzMyIgc3Ryb2tlPSIjMDAwMDAwIiBmaWxsPSJub25lIiBzdHJva2UtbGluZWpvaW49InJvdW5kIiBzdHJva2UtbGluZWNhcD0icm91bmQiIHN0cm9rZS13aWR0aD0iMTciIHRyYW5zZm9ybT0ibWF0cml4KC4wNiwwLDAsLS4wNiwwLDc2OCkiLz4mI3hhOzxwYXRoIGQ9Ik0xMjQzMy41IDU3NzhDMTI2MDMuMzI3IDU3NzggMTI3NDEgNTkxNS42NzI2IDEyNzQxIDYwODUuNSIgc3Ryb2tlPSIjMDAwMDAwIiBmaWxsPSJub25lIiBzdHJva2UtbGluZWpvaW49InJvdW5kIiBzdHJva2UtbGluZWNhcD0icm91bmQiIHN0cm9rZS13aWR0aD0iMTciIHRyYW5zZm9ybT0ibWF0cml4KC4wNiwwLDAsLS4wNiwwLDc2OCkiLz4mI3hhOzxwYXRoIGQ9Ik05OTY5LjUgNDc0MkMxMDQ1NC4yNDcgNDc0MiAxMDg3My4xOSA1MDgwLjQ3NCAxMDk3NS4wNDEgNTU1NC40IiBzdHJva2U9IiMwMDAwMDAiIGZpbGw9Im5vbmUiIHN0cm9rZS1saW5lam9pbj0icm91bmQiIHN0cm9rZS1saW5lY2FwPSJyb3VuZCIgc3Ryb2tlLXdpZHRoPSIxNyIgdHJhbnNmb3JtPSJtYXRyaXgoLjA2LDAsMCwtLjA2LDAsNzY4KSIvPiYjeGE7PHBhdGggZD0iTTE0NTIuNSA2Nzc2QzE2MjQuOTYzNCA2Nzc2IDE3NzYuMjEyOSA2ODkxLjEyMzcgMTgyMi4xNDczIDcwNTcuMzU3NiIgc3Ryb2tlPSIjMDAwMDAwIiBmaWxsPSJub25lIiBzdHJva2UtbGluZWpvaW49InJvdW5kIiBzdHJva2UtbGluZWNhcD0icm91bmQiIHN0cm9rZS13aWR0aD0iMTciIHRyYW5zZm9ybT0ibWF0cml4KC4wNiwwLDAsLS4wNiwwLDc2OCkiLz4mI3hhOzxwYXRoIGQ9Ik0tMTAyLjE0MjU5IDM2OS42NDczQy0yNjguMzc2MjYgMzIzLjcxMjktMzgzLjUgMTcyLjQ2MzM1LTM4My41IDAiIHN0cm9rZT0iIzAwMDAwMCIgZmlsbD0ibm9uZSIgc3Ryb2tlLWxpbmVqb2luPSJyb3VuZCIgc3Ryb2tlLWxpbmVjYXA9InJvdW5kIiBzdHJva2Utd2lkdGg9IjE3IiB0cmFuc2Zvcm09Im1hdHJpeCgwLC4wNiwuMDYsMCw4Ny4xNSw0NDQuMzMwMDMpIi8+JiN4YTs8cGF0aCBkPSJNNDMgNjA4NS41QzQzIDU5MTUuNjcyNiAxODAuNjcyNDMgNTc3OCAzNTAuNSA1Nzc4IiBzdHJva2U9IiMwMDAwMDAiIGZpbGw9Im5vbmUiIHN0cm9rZS1saW5lam9pbj0icm91bmQiIHN0cm9rZS1saW5lY2FwPSJyb3VuZCIgc3Ryb2tlLXdpZHRoPSIxNyIgdHJhbnNmb3JtPSJtYXRyaXgoLjA2LDAsMCwtLjA2LDAsNzY4KSIvPiYjeGE7PHBhdGggZD0iTTM1MCA1Nzc3SDM1MiAzNTggMzY3IDM4MSAzOTggNDIwIDQ0NCA0NzMgNTA1IDU0MCA1NzkgNjIxIDY2NiA3MTQgNzY1IDgxOCA4NzQgOTMyIDk5MiAxMDUzIDExMTcgMTE4MiAxMjQ4IDEzMTYgMTM4NCAxNDUyIiBzdHJva2U9IiMwMDAwMDAiIGZpbGw9Im5vbmUiIHN0cm9rZS1saW5lam9pbj0icm91bmQiIHN0cm9rZS1saW5lY2FwPSJyb3VuZCIgc3Ryb2tlLXdpZHRoPSIxNyIgdHJhbnNmb3JtPSJtYXRyaXgoLjA2LDAsMCwtLjA2LDAsNzY4KSIvPiYjeGE7PHBhdGggZD0iTTQzIDY0NjhWNjA4NSIgc3Ryb2tlPSIjMDAwMDAwIiBmaWxsPSJub25lIiBzdHJva2UtbGluZWpvaW49InJvdW5kIiBzdHJva2UtbGluZWNhcD0icm91bmQiIHN0cm9rZS13aWR0aD0iMTciIHRyYW5zZm9ybT0ibWF0cml4KC4wNiwwLDAsLS4wNiwwLDc2OCkiLz4mI3hhOzxwYXRoIGQ9Ik0xNDUyIDY3NzZIMTM4NCAxMzE2IDEyNDggMTE4MiAxMTE3IDEwNTMgOTkyIDkzMiA4NzQgODE4IDc2NSA3MTQgNjY2IDYyMSA1NzkgNTQwIDUwNSA0NzMgNDQ0IDQyMCAzOTggMzgxIDM2NyAzNTggMzUyIDM1MCIgc3Ryb2tlPSIjMDAwMDAwIiBmaWxsPSJub25lIiBzdHJva2UtbGluZWpvaW49InJvdW5kIiBzdHJva2UtbGluZWNhcD0icm91bmQiIHN0cm9rZS13aWR0aD0iMTciIHRyYW5zZm9ybT0ibWF0cml4KC4wNiwwLDAsLS4wNiwwLDc2OCkiLz4mI3hhOzxwYXRoIGQ9Ik0zNTAuNSA2Nzc2QzE4MC42NzI0MyA2Nzc2IDQzIDY2MzguMzI3OCA0MyA2NDY4LjUiIHN0cm9rZT0iIzAwMDAwMCIgZmlsbD0ibm9uZSIgc3Ryb2tlLWxpbmVqb2luPSJyb3VuZCIgc3Ryb2tlLWxpbmVjYXA9InJvdW5kIiBzdHJva2Utd2lkdGg9IjE3IiB0cmFuc2Zvcm09Im1hdHJpeCguMDYsMCwwLC0uMDYsMCw3NjgpIi8+JiN4YTs8cGF0aCBkPSJNMjgxNC41IDc4MTJDMjMyOS43NTMyIDc4MTIgMTkxMC44MDk4IDc0NzMuNTI2IDE4MDguOTU4OSA2OTk5LjYiIHN0cm9rZT0iIzAwMDAwMCIgZmlsbD0ibm9uZSIgc3Ryb2tlLWxpbmVqb2luPSJyb3VuZCIgc3Ryb2tlLWxpbmVjYXA9InJvdW5kIiBzdHJva2Utd2lkdGg9IjE3IiB0cmFuc2Zvcm09Im1hdHJpeCguMDYsMCwwLC0uMDYsMCw3NjgpIi8+JiN4YTs8cGF0aCBkPSJNODMxMCA1MTIzVjUxMjUgNTEzMSA1MTQwIDUxNTMgNTE2OSA1MTg4IDUyMTEgNTIzNiA1MjY0IDUyOTQgNTMyNiA1MzYwIDUzOTYgNTQzMiA1NDcwIDU1MDcgNzA1MiA3MDkwIDcxMjcgNzE2MyA3MTk5IDcyMzMgNzI2NSA3Mjk1IDczMjMgNzM0OSA3MzcxIDczOTAgNzQwNyA3NDE5IDc0MjggNzQzNCA3NDM2IiBzdHJva2U9IiMwMDAwMDAiIGZpbGw9Im5vbmUiIHN0cm9rZS1saW5lam9pbj0icm91bmQiIHN0cm9rZS1saW5lY2FwPSJyb3VuZCIgc3Ryb2tlLXdpZHRoPSIxNyIgdHJhbnNmb3JtPSJtYXRyaXgoLjA2LDAsMCwtLjA2LDAsNzY4KSIvPiYjeGE7PHBhdGggZD0iTTY3NzUgNTEyM1Y1MTI1IDUxMzEgNTE0MCA1MTUzIDUxNjkgNTE4OCA1MjExIDUyMzYgNTI2NCA1Mjk0IDUzMjYgNTM2MCA1Mzk2IDU0MzIgNTQ3MCA1NTA3IDcwNTIgNzA5MCA3MTI3IDcxNjMgNzE5OSA3MjMzIDcyNjUgNzI5NSA3MzIzIDczNDkgNzM3MSA3MzkwIDc0MDcgNzQxOSA3NDI4IDc0MzQgNzQzNiIgc3Ryb2tlPSIjMDAwMDAwIiBmaWxsPSJub25lIiBzdHJva2UtbGluZWpvaW49InJvdW5kIiBzdHJva2UtbGluZWNhcD0icm91bmQiIHN0cm9rZS13aWR0aD0iMTciIHRyYW5zZm9ybT0ibWF0cml4KC4wNiwwLDAsLS4wNiwwLDc2OCkiLz4mI3hhOzxwYXRoIGQ9Ik02MDA3IDc0MzZWNzQzNCA3NDI4IDc0MTkgNzQwNyA3MzkwIDczNzEgNzM0OSA3MzIzIDcyOTUgNzI2NSA3MjMzIDcxOTkgNzE2MyA3MTI3IDcwOTAgNzA1MiA1NTA3IDU0NzAgNTQzMiA1Mzk2IDUzNjAgNTMyNiA1Mjk0IDUyNjQgNTIzNiA1MjExIDUxODggNTE2OSA1MTUzIDUxNDAgNTEzMSA1MTI1IDUxMjMiIHN0cm9rZT0iIzAwMDAwMCIgZmlsbD0ibm9uZSIgc3Ryb2tlLWxpbmVqb2luPSJyb3VuZCIgc3Ryb2tlLWxpbmVjYXA9InJvdW5kIiBzdHJva2Utd2lkdGg9IjE3IiB0cmFuc2Zvcm09Im1hdHJpeCguMDYsMCwwLC0uMDYsMCw3NjgpIi8+JiN4YTs8cGF0aCBkPSJNNDQ3MiA3NDM2Vjc0MzQgNzQyOCA3NDE5IDc0MDcgNzM5MCA3MzcxIDczNDkgNzMyMyA3Mjk1IDcyNjUgNzIzMyA3MTk5IDcxNjMgNzEyNyA3MDkwIDcwNTIgNTUwNyA1NDcwIDU0MzIgNTM5NiA1MzYwIDUzMjYgNTI5NCA1MjY0IDUyMzYgNTIxMSA1MTg4IDUxNjkgNTE1MyA1MTQwIDUxMzEgNTEyNSA1MTIzIiBzdHJva2U9IiMwMDAwMDAiIGZpbGw9Im5vbmUiIHN0cm9rZS1saW5lam9pbj0icm91bmQiIHN0cm9rZS1saW5lY2FwPSJyb3VuZCIgc3Ryb2tlLXdpZHRoPSIxNyIgdHJhbnNmb3JtPSJtYXRyaXgoLjA2LDAsMCwtLjA2LDAsNzY4KSIvPiYjeGE7PHBhdGggZD0iTTQ0NzIgNTEyM0g1MjQwVjUxMjUgNTEzMSA1MTQwIDUxNTMgNTE2OSA1MTg4IDUyMTEgNTIzNiA1MjY0IDUyOTQgNTMyNiA1MzYwIDUzOTYgNTQzMiA1NDcwIDU1MDcgNzA1MiA3MDkwIDcxMjcgNzE2MyA3MTk5IDcyMzMgNzI2NSA3Mjk1IDczMjMgNzM0OSA3MzcxIDczOTAgNzQwNyA3NDE5IDc0MjggNzQzNCA3NDM2IiBzdHJva2U9IiMwMDAwMDAiIGZpbGw9Im5vbmUiIHN0cm9rZS1saW5lam9pbj0icm91bmQiIHN0cm9rZS1saW5lY2FwPSJyb3VuZCIgc3Ryb2tlLXdpZHRoPSIxNyIgdHJhbnNmb3JtPSJtYXRyaXgoLjA2LDAsMCwtLjA2LDAsNzY4KSIvPiYjeGE7PHBhdGggZD0iTTc1NDMgNTEyM0g4MzEwIiBzdHJva2U9IiMwMDAwMDAiIGZpbGw9Im5vbmUiIHN0cm9rZS1saW5lam9pbj0icm91bmQiIHN0cm9rZS1saW5lY2FwPSJyb3VuZCIgc3Ryb2tlLXdpZHRoPSIxNyIgdHJhbnNmb3JtPSJtYXRyaXgoLjA2LDAsMCwtLjA2LDAsNzY4KSIvPiYjeGE7PHBhdGggZD0iTTYwMDcgNTEyM0g2Nzc1IiBzdHJva2U9IiMwMDAwMDAiIGZpbGw9Im5vbmUiIHN0cm9rZS1saW5lam9pbj0icm91bmQiIHN0cm9rZS1saW5lY2FwPSJyb3VuZCIgc3Ryb2tlLXdpZHRoPSIxNyIgdHJhbnNmb3JtPSJtYXRyaXgoLjA2LDAsMCwtLjA2LDAsNzY4KSIvPiYjeGE7PHBhdGggZD0iTTc1NDMgNzA1MlY1NTA3IDU0NzAgNTQzMiA1Mzk2IDUzNjAgNTMyNiA1Mjk0IDUyNjQgNTIzNiA1MjExIDUxODggNTE2OSA1MTUzIDUxNDAgNTEzMSA1MTI1IDUxMjMiIHN0cm9rZT0iIzAwMDAwMCIgZmlsbD0ibm9uZSIgc3Ryb2tlLWxpbmVqb2luPSJyb3VuZCIgc3Ryb2tlLWxpbmVjYXA9InJvdW5kIiBzdHJva2Utd2lkdGg9IjE3IiB0cmFuc2Zvcm09Im1hdHJpeCguMDYsMCwwLC0uMDYsMCw3NjgpIi8+JiN4YTs8cGF0aCBkPSJNNTI0MCA3NDM2SDQ0NzIiIHN0cm9rZT0iIzAwMDAwMCIgZmlsbD0ibm9uZSIgc3Ryb2tlLWxpbmVqb2luPSJyb3VuZCIgc3Ryb2tlLWxpbmVjYXA9InJvdW5kIiBzdHJva2Utd2lkdGg9IjE3IiB0cmFuc2Zvcm09Im1hdHJpeCguMDYsMCwwLC0uMDYsMCw3NjgpIi8+JiN4YTs8cGF0aCBkPSJNNjc3NSA3NDM2SDYwMDciIHN0cm9rZT0iIzAwMDAwMCIgZmlsbD0ibm9uZSIgc3Ryb2tlLWxpbmVqb2luPSJyb3VuZCIgc3Ryb2tlLWxpbmVjYXA9InJvdW5kIiBzdHJva2Utd2lkdGg9IjE3IiB0cmFuc2Zvcm09Im1hdHJpeCguMDYsMCwwLC0uMDYsMCw3NjgpIi8+JiN4YTs8cGF0aCBkPSJNODMxMCA3NDM2SDc1NDNWNzQzNCA3NDI4IDc0MTkgNzQwNyA3MzkwIDczNzEgNzM0OSA3MzIzIDcyOTUgNzI2NSA3MjMzIDcxOTkgNzE2MyA3MTI3IDcwOTAgNzA1MiIgc3Ryb2tlPSIjMDAwMDAwIiBmaWxsPSJub25lIiBzdHJva2UtbGluZWpvaW49InJvdW5kIiBzdHJva2UtbGluZWNhcD0icm91bmQiIHN0cm9rZS13aWR0aD0iMTciIHRyYW5zZm9ybT0ibWF0cml4KC4wNiwwLDAsLS4wNiwwLDc2OCkiLz4mI3hhOzxwYXRoIGQ9Ik02MDA3IDc0MjhINTI0MCIgc3Ryb2tlPSIjMDAwMDAwIiBmaWxsPSJub25lIiBzdHJva2UtbGluZWpvaW49InJvdW5kIiBzdHJva2UtbGluZWNhcD0icm91bmQiIHN0cm9rZS13aWR0aD0iMTciIHRyYW5zZm9ybT0ibWF0cml4KC4wNiwwLDAsLS4wNiwwLDc2OCkiLz4mI3hhOzxwYXRoIGQ9Ik03NTQzIDc0MjhINjc3NSIgc3Ryb2tlPSIjMDAwMDAwIiBmaWxsPSJub25lIiBzdHJva2UtbGluZWpvaW49InJvdW5kIiBzdHJva2UtbGluZWNhcD0icm91bmQiIHN0cm9rZS13aWR0aD0iMTciIHRyYW5zZm9ybT0ibWF0cml4KC4wNiwwLDAsLS4wNiwwLDc2OCkiLz4mI3hhOzxwYXRoIGQ9Ik01MjQwIDUxMjVINjAwNyIgc3Ryb2tlPSIjMDAwMDAwIiBmaWxsPSJub25lIiBzdHJva2UtbGluZWpvaW49InJvdW5kIiBzdHJva2UtbGluZWNhcD0icm91bmQiIHN0cm9rZS13aWR0aD0iMTciIHRyYW5zZm9ybT0ibWF0cml4KC4wNiwwLDAsLS4wNiwwLDc2OCkiLz4mI3hhOzxwYXRoIGQ9Ik02Nzc1IDUxMjVINzU0MyIgc3Ryb2tlPSIjMDAwMDAwIiBmaWxsPSJub25lIiBzdHJva2UtbGluZWpvaW49InJvdW5kIiBzdHJva2UtbGluZWNhcD0icm91bmQiIHN0cm9rZS13aWR0aD0iMTciIHRyYW5zZm9ybT0ibWF0cml4KC4wNiwwLDAsLS4wNiwwLDc2OCkiLz4mI3hhOzxwYXRoIGQ9Ik0tMTkxLjY3NTcgMzMyLjE2MzY1Qy0zMTAuMzcyODcgMjYzLjY2OTItMzgzLjUgMTM3LjA0MTk5LTM4My41IDAiIHN0cm9rZT0iIzAwMDAwMCIgZmlsbD0ibm9uZSIgc3Ryb2tlLWxpbmVqb2luPSJyb3VuZCIgc3Ryb2tlLWxpbmVjYXA9InJvdW5kIiBzdHJva2Utd2lkdGg9IjE3IiB0cmFuc2Zvcm09Im1hdHJpeCgwLC0uMDYsLS4wNiwtMCwyNjIuMTY5OTksMjk5LjI1KSIvPiYjeGE7PHBhdGggZD0iTS0xOTEuNjc1NyAzMzIuMTYzNjVDLTMxMC4zNzI4NyAyNjMuNjY5Mi0zODMuNSAxMzcuMDQxOTktMzgzLjUgMCIgc3Ryb2tlPSIjMDAwMDAwIiBmaWxsPSJub25lIiBzdHJva2UtbGluZWpvaW49InJvdW5kIiBzdHJva2UtbGluZWNhcD0icm91bmQiIHN0cm9rZS13aWR0aD0iMTciIHRyYW5zZm9ybT0ibWF0cml4KC4wNTE5Njg0LC4wMjk5ODg2LC4wMjk5ODg2LC0uMDUxOTY4NCwyNjIuMTY5OTksNDgzLjUxKSIvPiYjeGE7PHBhdGggZD0iTS0xOTEuNjc1NyAzMzIuMTYzNjVDLTMxMC4zNzI4NyAyNjMuNjY5Mi0zODMuNSAxMzcuMDQxOTktMzgzLjUgMCIgc3Ryb2tlPSIjMDAwMDAwIiBmaWxsPSJub25lIiBzdHJva2UtbGluZWpvaW49InJvdW5kIiBzdHJva2UtbGluZWNhcD0icm91bmQiIHN0cm9rZS13aWR0aD0iMTciIHRyYW5zZm9ybT0ibWF0cml4KDAsLjA2LC4wNiwwLDIyMi4zMywzMjIuMjkpIi8+JiN4YTs8cGF0aCBkPSJNNDQ3MiA3NDI4SDQzNDkiIHN0cm9rZT0iIzAwMDAwMCIgZmlsbD0ibm9uZSIgc3Ryb2tlLWxpbmVqb2luPSJyb3VuZCIgc3Ryb2tlLWxpbmVjYXA9InJvdW5kIiBzdHJva2Utd2lkdGg9IjE3IiB0cmFuc2Zvcm09Im1hdHJpeCguMDYsMCwwLC0uMDYsMCw3NjgpIi8+JiN4YTs8cGF0aCBkPSJNNDM0OSA1MTI1SDQ0NzIiIHN0cm9rZT0iIzAwMDAwMCIgZmlsbD0ibm9uZSIgc3Ryb2tlLWxpbmVqb2luPSJyb3VuZCIgc3Ryb2tlLWxpbmVjYXA9InJvdW5kIiBzdHJva2Utd2lkdGg9IjE3IiB0cmFuc2Zvcm09Im1hdHJpeCguMDYsMCwwLC0uMDYsMCw3NjgpIi8+JiN4YTs8cGF0aCBkPSJNLTE5MS42NzU3IDMzMi4xNjM2NUMtMzEwLjM3Mjg3IDI2My42NjkyLTM4My41IDEzNy4wNDE5OS0zODMuNSAwIiBzdHJva2U9IiMwMDAwMDAiIGZpbGw9Im5vbmUiIHN0cm9rZS1saW5lam9pbj0icm91bmQiIHN0cm9rZS1saW5lY2FwPSJyb3VuZCIgc3Ryb2tlLXdpZHRoPSIxNyIgdHJhbnNmb3JtPSJtYXRyaXgoLS4wNTE5Njg0LC0uMDI5OTg4NiwtLjAyOTk4ODYsLjA1MTk2ODQsNTA0LjgxLDI5OS4yNSkiLz4mI3hhOzxwYXRoIGQ9Ik0tMTkxLjY3NTcgMzMyLjE2MzY1Qy0zMTAuMzcyODcgMjYzLjY2OTItMzgzLjUgMTM3LjA0MTk5LTM4My41IDAiIHN0cm9rZT0iIzAwMDAwMCIgZmlsbD0ibm9uZSIgc3Ryb2tlLWxpbmVqb2luPSJyb3VuZCIgc3Ryb2tlLWxpbmVjYXA9InJvdW5kIiBzdHJva2Utd2lkdGg9IjE3IiB0cmFuc2Zvcm09Im1hdHJpeCgwLC4wNiwuMDYsMCw1MDQuODEsNDgzLjUxKSIvPiYjeGE7PHBhdGggZD0iTTgzMTAgNTEyNUg4NDMzIiBzdHJva2U9IiMwMDAwMDAiIGZpbGw9Im5vbmUiIHN0cm9rZS1saW5lam9pbj0icm91bmQiIHN0cm9rZS1saW5lY2FwPSJyb3VuZCIgc3Ryb2tlLXdpZHRoPSIxNyIgdHJhbnNmb3JtPSJtYXRyaXgoLjA2LDAsMCwtLjA2LDAsNzY4KSIvPiYjeGE7PHBhdGggZD0iTTkwNzguNSA3ODEyQzg5NDEuNDU4IDc4MTIgODgxNC44MzEgNzczOC44NzMgODc0Ni4zMzYgNzYyMC4xNzYiIHN0cm9rZT0iIzAwMDAwMCIgZmlsbD0ibm9uZSIgc3Ryb2tlLWxpbmVqb2luPSJyb3VuZCIgc3Ryb2tlLWxpbmVjYXA9InJvdW5kIiBzdHJva2Utd2lkdGg9IjE3IiB0cmFuc2Zvcm09Im1hdHJpeCguMDYsMCwwLC0uMDYsMCw3NjgpIi8+JiN4YTs8cGF0aCBkPSJNODc0Ni4zMzYgNDkzMy44MjRDODgxNC44MzEgNDgxNS4xMjcgODk0MS40NTggNDc0MiA5MDc4LjUgNDc0MiIgc3Ryb2tlPSIjMDAwMDAwIiBmaWxsPSJub25lIiBzdHJva2UtbGluZWpvaW49InJvdW5kIiBzdHJva2UtbGluZWNhcD0icm91bmQiIHN0cm9rZS13aWR0aD0iMTciIHRyYW5zZm9ybT0ibWF0cml4KC4wNiwwLDAsLS4wNiwwLDc2OCkiLz4mI3hhOzxwYXRoIGQ9Ik04NDMzIDc0MjhIODMxMCIgc3Ryb2tlPSIjMDAwMDAwIiBmaWxsPSJub25lIiBzdHJva2UtbGluZWpvaW49InJvdW5kIiBzdHJva2UtbGluZWNhcD0icm91bmQiIHN0cm9rZS13aWR0aD0iMTciIHRyYW5zZm9ybT0ibWF0cml4KC4wNiwwLDAsLS4wNiwwLDc2OCkiLz4mI3hhOzxwYXRoIGQ9Ik05OTY5IDc4MTJIOTA3OCIgc3Ryb2tlPSIjMDAwMDAwIiBmaWxsPSJub25lIiBzdHJva2UtbGluZWpvaW49InJvdW5kIiBzdHJva2UtbGluZWNhcD0icm91bmQiIHN0cm9rZS13aWR0aD0iMTciIHRyYW5zZm9ybT0ibWF0cml4KC4wNiwwLDAsLS4wNiwwLDc2OCkiLz4mI3hhOzxwYXRoIGQ9Ik0zNzA1LjUgNDc0MkMzODQyLjU0MiA0NzQyIDM5NjkuMTY5MyA0ODE1LjEyNyA0MDM3LjY2MzYgNDkzMy44MjQiIHN0cm9rZT0iIzAwMDAwMCIgZmlsbD0ibm9uZSIgc3Ryb2tlLWxpbmVqb2luPSJyb3VuZCIgc3Ryb2tlLWxpbmVjYXA9InJvdW5kIiBzdHJva2Utd2lkdGg9IjE3IiB0cmFuc2Zvcm09Im1hdHJpeCguMDYsMCwwLC0uMDYsMCw3NjgpIi8+JiN4YTs8cGF0aCBkPSJNMjgxNCA0NzQxSDM3MDUiIHN0cm9rZT0iIzAwMDAwMCIgZmlsbD0ibm9uZSIgc3Ryb2tlLWxpbmVqb2luPSJyb3VuZCIgc3Ryb2tlLWxpbmVjYXA9InJvdW5kIiBzdHJva2Utd2lkdGg9IjE3IiB0cmFuc2Zvcm09Im1hdHJpeCguMDYsMCwwLC0uMDYsMCw3NjgpIi8+JiN4YTs8cGF0aCBkPSJNMzcwNSA3ODEySDI4MTQiIHN0cm9rZT0iIzAwMDAwMCIgZmlsbD0ibm9uZSIgc3Ryb2tlLWxpbmVqb2luPSJyb3VuZCIgc3Ryb2tlLWxpbmVjYXA9InJvdW5kIiBzdHJva2Utd2lkdGg9IjE3IiB0cmFuc2Zvcm09Im1hdHJpeCguMDYsMCwwLC0uMDYsMCw3NjgpIi8+JiN4YTs8cGF0aCBkPSJNMTgwOC45NTg5IDU1NTQuNEMxOTEwLjgwOTggNTA4MC40NzQgMjMyOS43NTMyIDQ3NDIgMjgxNC41IDQ3NDIiIHN0cm9rZT0iIzAwMDAwMCIgZmlsbD0ibm9uZSIgc3Ryb2tlLWxpbmVqb2luPSJyb3VuZCIgc3Ryb2tlLWxpbmVjYXA9InJvdW5kIiBzdHJva2Utd2lkdGg9IjE3IiB0cmFuc2Zvcm09Im1hdHJpeCguMDYsMCwwLC0uMDYsMCw3NjgpIi8+JiN4YTs8cGF0aCBkPSJNMTA5NzUuMDQxIDY5OTkuNkMxMDg3My4xOSA3NDczLjUyNiAxMDQ1NC4yNDcgNzgxMiA5OTY5LjUgNzgxMiIgc3Ryb2tlPSIjMDAwMDAwIiBmaWxsPSJub25lIiBzdHJva2UtbGluZWpvaW49InJvdW5kIiBzdHJva2UtbGluZWNhcD0icm91bmQiIHN0cm9rZS13aWR0aD0iMTciIHRyYW5zZm9ybT0ibWF0cml4KC4wNiwwLDAsLS4wNiwwLDc2OCkiLz4mI3hhOzxwYXRoIGQ9Ik05MDc4IDQ3NDFIOTk2OSIgc3Ryb2tlPSIjMDAwMDAwIiBmaWxsPSJub25lIiBzdHJva2UtbGluZWpvaW49InJvdW5kIiBzdHJva2UtbGluZWNhcD0icm91bmQiIHN0cm9rZS13aWR0aD0iMTciIHRyYW5zZm9ybT0ibWF0cml4KC4wNiwwLDAsLS4wNiwwLDc2OCkiLz4mI3hhOzwvZz4mI3hhOzwvZz4mI3hhOzwvc3ZnPg==;rotation=-90;" parent="1" vertex="1">
          <mxGeometry x="409.9985000000001" y="682.9984999999999" width="47.25" height="47.25" as="geometry" />
        </mxCell>
        <mxCell id="BrNzGxmRZwCwyTXX9haU-1" value="" style="edgeStyle=segmentEdgeStyle;endArrow=none;html=1;curved=0;rounded=0;endSize=8;startSize=8;endFill=0;jumpStyle=none;strokeColor=#000000;strokeWidth=1.5;" parent="1" edge="1">
          <mxGeometry width="50" height="50" relative="1" as="geometry">
            <mxPoint x="394" y="210" as="sourcePoint" />
            <mxPoint x="394" y="773" as="targetPoint" />
            <Array as="points">
              <mxPoint x="394" y="470" />
              <mxPoint x="394" y="470" />
            </Array>
          </mxGeometry>
        </mxCell>
        <mxCell id="jK_vld3Wya_w_Z-3e2AY-5" value="" style="edgeStyle=segmentEdgeStyle;endArrow=none;html=1;curved=0;rounded=0;endSize=8;startSize=8;endFill=0;jumpStyle=none;strokeColor=#000000;strokeWidth=1.5;jumpSize=6;" parent="1" edge="1">
          <mxGeometry width="50" height="50" relative="1" as="geometry">
            <mxPoint x="414" y="332.7" as="sourcePoint" />
            <mxPoint x="463.76" y="321" as="targetPoint" />
            <Array as="points">
              <mxPoint x="414" y="332.7" />
              <mxPoint x="464" y="332.7" />
            </Array>
          </mxGeometry>
        </mxCell>
        <mxCell id="jK_vld3Wya_w_Z-3e2AY-2" value="" style="endArrow=none;html=1;rounded=0;strokeWidth=1.5;jumpStyle=none;" parent="1" edge="1">
          <mxGeometry width="50" height="50" relative="1" as="geometry">
            <mxPoint x="433.9985" y="684" as="sourcePoint" />
            <mxPoint x="433.9985" y="298.99850000000004" as="targetPoint" />
          </mxGeometry>
        </mxCell>
        <mxCell id="jK_vld3Wya_w_Z-3e2AY-8" value="" style="edgeStyle=segmentEdgeStyle;endArrow=none;html=1;curved=0;rounded=0;endSize=8;startSize=8;endFill=0;jumpStyle=arc;strokeColor=#000000;strokeWidth=1.5;jumpSize=6;" parent="1" edge="1">
          <mxGeometry width="50" height="50" relative="1" as="geometry">
            <mxPoint x="414" y="332.6970707070707" as="sourcePoint" />
            <mxPoint x="362.9984999999999" y="320.9970707070707" as="targetPoint" />
            <Array as="points">
              <mxPoint x="412.7584999999999" y="332.6970707070707" />
              <mxPoint x="362.7584999999999" y="332.6970707070707" />
            </Array>
          </mxGeometry>
        </mxCell>
        <mxCell id="jK_vld3Wya_w_Z-3e2AY-9" value="" style="edgeStyle=segmentEdgeStyle;endArrow=none;html=1;curved=0;rounded=0;endSize=8;startSize=8;endFill=0;jumpStyle=arc;strokeColor=#000000;strokeWidth=1.5;jumpSize=6;" parent="1" edge="1">
          <mxGeometry width="50" height="50" relative="1" as="geometry">
            <mxPoint x="417" y="348" as="sourcePoint" />
            <mxPoint x="483" y="321" as="targetPoint" />
            <Array as="points">
              <mxPoint x="417" y="348" />
              <mxPoint x="483" y="348" />
            </Array>
          </mxGeometry>
        </mxCell>
        <mxCell id="jK_vld3Wya_w_Z-3e2AY-10" value="" style="edgeStyle=segmentEdgeStyle;endArrow=none;html=1;curved=0;rounded=0;endSize=8;startSize=8;endFill=0;jumpStyle=none;strokeColor=#000000;strokeWidth=1.5;jumpSize=6;" parent="1" edge="1">
          <mxGeometry width="50" height="50" relative="1" as="geometry">
            <mxPoint x="417" y="347.9985" as="sourcePoint" />
            <mxPoint x="343.9982644628098" y="320.9985" as="targetPoint" />
            <Array as="points">
              <mxPoint x="409.9982644628098" y="347.9985" />
              <mxPoint x="343.9982644628098" y="347.9985" />
            </Array>
          </mxGeometry>
        </mxCell>
        <mxCell id="jK_vld3Wya_w_Z-3e2AY-19" value="" style="group;flipV=1;" parent="1" vertex="1" connectable="0">
          <mxGeometry x="343.9967644628098" y="633.8555707070707" width="139.0017355371902" height="27.00292929292931" as="geometry" />
        </mxCell>
        <mxCell id="jK_vld3Wya_w_Z-3e2AY-15" value="" style="edgeStyle=segmentEdgeStyle;endArrow=none;html=1;curved=0;rounded=0;endSize=8;startSize=8;endFill=0;jumpStyle=none;strokeColor=#000000;strokeWidth=1.5;jumpSize=6;" parent="jK_vld3Wya_w_Z-3e2AY-19" edge="1">
          <mxGeometry width="50" height="50" relative="1" as="geometry">
            <mxPoint x="70.0017355371902" y="15.299999999999955" as="sourcePoint" />
            <mxPoint x="119.76173553719019" y="26.999999999999943" as="targetPoint" />
            <Array as="points">
              <mxPoint x="70.0017355371902" y="15.299999999999955" />
              <mxPoint x="120.0017355371902" y="15.299999999999955" />
            </Array>
          </mxGeometry>
        </mxCell>
        <mxCell id="jK_vld3Wya_w_Z-3e2AY-16" value="" style="edgeStyle=segmentEdgeStyle;endArrow=none;html=1;curved=0;rounded=0;endSize=8;startSize=8;endFill=0;jumpStyle=arc;strokeColor=#000000;strokeWidth=1.5;jumpSize=6;" parent="jK_vld3Wya_w_Z-3e2AY-19" edge="1">
          <mxGeometry width="50" height="50" relative="1" as="geometry">
            <mxPoint x="70.0017355371902" y="15.302929292929264" as="sourcePoint" />
            <mxPoint x="19.00023553719012" y="27.002929292929252" as="targetPoint" />
            <Array as="points">
              <mxPoint x="68.76023553719011" y="15.302929292929264" />
              <mxPoint x="18.760235537190113" y="15.302929292929264" />
            </Array>
          </mxGeometry>
        </mxCell>
        <mxCell id="jK_vld3Wya_w_Z-3e2AY-17" value="" style="edgeStyle=segmentEdgeStyle;endArrow=none;html=1;curved=0;rounded=0;endSize=8;startSize=8;endFill=0;jumpStyle=arc;strokeColor=#000000;strokeWidth=1.5;jumpSize=6;" parent="jK_vld3Wya_w_Z-3e2AY-19" edge="1">
          <mxGeometry width="50" height="50" relative="1" as="geometry">
            <mxPoint x="73.0017355371902" y="-5.684341886080802e-14" as="sourcePoint" />
            <mxPoint x="139.0017355371902" y="26.999999999999943" as="targetPoint" />
            <Array as="points">
              <mxPoint x="73.0017355371902" y="-5.684341886080802e-14" />
              <mxPoint x="139.0017355371902" y="-5.684341886080802e-14" />
            </Array>
          </mxGeometry>
        </mxCell>
        <mxCell id="jK_vld3Wya_w_Z-3e2AY-18" value="" style="edgeStyle=segmentEdgeStyle;endArrow=none;html=1;curved=0;rounded=0;endSize=8;startSize=8;endFill=0;jumpStyle=none;strokeColor=#000000;strokeWidth=1.5;jumpSize=6;" parent="jK_vld3Wya_w_Z-3e2AY-19" edge="1">
          <mxGeometry width="50" height="50" relative="1" as="geometry">
            <mxPoint x="73.0017355371902" y="0.0014999999999645297" as="sourcePoint" />
            <mxPoint y="27.001499999999965" as="targetPoint" />
            <Array as="points">
              <mxPoint x="66.00000000000006" y="0.0014999999999645297" />
              <mxPoint y="0.0014999999999645297" />
            </Array>
          </mxGeometry>
        </mxCell>
        <mxCell id="jK_vld3Wya_w_Z-3e2AY-20" value="&lt;font color=&quot;#000000&quot;&gt;5mm LED&lt;/font&gt;" style="text;html=1;align=center;verticalAlign=middle;whiteSpace=wrap;rounded=0;fontFamily=Verdana;fontSize=12;fontColor=#E41B17;fontStyle=1;labelBackgroundColor=none;labelBorderColor=none;textShadow=0;" parent="1" vertex="1">
          <mxGeometry x="498.02549999999997" y="265.74550000000005" width="73.81" height="18.19" as="geometry" />
        </mxCell>
        <mxCell id="jK_vld3Wya_w_Z-3e2AY-21" value="&lt;font color=&quot;#000000&quot; style=&quot;font-size: 8px;&quot;&gt;(R)&lt;/font&gt;" style="text;html=1;align=center;verticalAlign=middle;whiteSpace=wrap;rounded=0;fontFamily=Verdana;fontSize=8;fontColor=#E41B17;fontStyle=1;labelBackgroundColor=none;labelBorderColor=none;textShadow=0;" parent="1" vertex="1">
          <mxGeometry x="417.99949999999984" y="265.9995000000002" width="33.46" height="18.19" as="geometry" />
        </mxCell>
        <mxCell id="jK_vld3Wya_w_Z-3e2AY-22" value="&lt;font color=&quot;#000000&quot; style=&quot;font-size: 8px;&quot;&gt;(R)&lt;/font&gt;" style="text;html=1;align=center;verticalAlign=middle;whiteSpace=wrap;rounded=0;fontFamily=Verdana;fontSize=8;fontColor=#E41B17;fontStyle=1;labelBackgroundColor=none;labelBorderColor=none;textShadow=0;" parent="1" vertex="1">
          <mxGeometry x="417.9979999999999" y="696.8480000000002" width="33.46" height="18.19" as="geometry" />
        </mxCell>
      </root>
    </mxGraphModel>
  </diagram>
</mxfile>
